<?xml version="1.0" encoding="UTF-8"?>
<svg xmlns="http://www.w3.org/2000/svg" xmlns:xlink="http://www.w3.org/1999/xlink" height="486pt" viewBox="0 -4 486 486" width="486pt">
   <linearGradient id="a">
      <stop offset="0" stop-color="#F38D74" />
      <stop offset="1" stop-color="#E93E3A" />
   </linearGradient>
   <linearGradient id="b" gradientUnits="userSpaceOnUse" x1="243" x2="243" xlink:href="#a" y1="-11.233554" y2="486.852446" />
   <linearGradient id="c" gradientUnits="userSpaceOnUse" x1="242.994" x2="242.994" xlink:href="#a" y1="-11.233554" y2="486.852446" />
   <linearGradient id="d" gradientUnits="userSpaceOnUse" x1="273.681" x2="273.681" xlink:href="#a" y1="-11.233554" y2="486.852446" />
   <linearGradient id="e" gradientUnits="userSpaceOnUse" x1="212.319" x2="212.319" xlink:href="#a" y1="-11.233554" y2="486.852446" />
   <path d="m437.199219 50h-13.199219v-42.066406c-.101562-4.445313-3.753906-7.980469-8.199219-7.933594h-86.402343c-4.417969 0-8.398438 3.515625-8.398438 7.933594v42.066406h-156v-42.066406c0-4.417969-3.980469-7.933594-8.398438-7.933594h-86.402343c-4.445313-.046875-8.097657 3.488281-8.199219 7.933594v42.066406h-13.199219c-26.839843 0-48.800781 21.511719-48.800781 48.347656v331.054688c.0976562 26.875 21.921875 48.609375 48.800781 48.597656h388.398438c26.878906.011719 48.703125-21.722656 48.800781-48.597656v-331.054688c0-26.835937-21.960938-48.347656-48.800781-48.347656zm-100.199219-34h71v63h-71zm-259 0h71v63h-71zm-29.199219 50h13.199219v20.71875c.070312 4.511719 3.6875 8.164062 8.199219 8.28125h86.402343c4.550782-.097656 8.234376-3.730469 8.398438-8.28125v-20.71875h156v20.71875c.164062 4.550781 3.847656 8.183594 8.398438 8.28125h86.402343c4.511719-.117188 8.128907-3.769531 8.199219-8.28125v-20.71875h13.199219c8.640625-.070312 16.957031 3.304688 23.109375 9.371094s9.640625 14.335937 9.691406 22.976562v32.652344h-454v-32.652344c.050781-8.640625 3.539062-16.910156 9.691406-22.976562s14.46875-9.441406 23.109375-9.371094zm388.398438 396h-388.398438c-18.046875.023438-32.714843-14.554688-32.800781-32.597656v-282.402344h454v282.402344c-.085938 18.042968-14.753906 32.621094-32.800781 32.597656zm0 0" fill="url(#b)" />
   <path d="m329.976562 327.359375c-1.96875-24.386719-13.40625-47.027344-31.859374-63.089844l-6.117188-5.417969v-15.359374c-.058594-13.929688-4.742188-27.445313-13.316406-38.421876l-29.328125-37.519531c-1.523438-1.941406-3.855469-3.074219-6.324219-3.074219s-4.800781 1.132813-6.324219 3.074219l-29.386719 37.519531c-8.574218 10.976563-13.261718 24.492188-13.320312 38.421876v15.359374l-6.117188 5.417969c-18.46875 16.054688-29.921874 38.699219-31.910156 63.089844l-2.78125 33.289063c-.183594 2.230468.574219 4.441406 2.09375 6.085937 1.515625 1.648437 3.65625 2.585937 5.894532 2.585937 1.28125 0 2.542968-.324218 3.664062-.9375l29.15625-15.574218v12.203125c.09375 4.453125 3.742188 8.011719 8.199219 7.988281h1.800781v21.074219c.011719 2.117187.867188 4.144531 2.375 5.632812 1.507812 1.484375 3.546875 2.3125 5.664062 2.292969h61.921876c2.117187.019531 4.15625-.808594 5.664062-2.292969 1.507812-1.488281 2.363281-3.515625 2.375-5.632812v-21.074219h1.800781c4.457031.023438 8.105469-3.535156 8.199219-7.988281v-12.199219l29.152344 15.570312c1.140625.617188 2.414062.9375 3.710937.9375 2.230469-.003906 4.359375-.945312 5.867188-2.59375 1.507812-1.648437 2.257812-3.851562 2.066406-6.078124zm-119.976562 29.640625v-38h66v38zm9.929688-142.085938 23.019531-29.4375 23.101562 29.4375c6.390625 8.160157 9.890625 18.210938 9.949219 28.578126v59.507812h-66v-59.507812c.050781-10.363282 3.542969-20.414063 9.929688-28.578126zm-49.628907 132.441407 1.519531-18.65625c1.410157-18.226563 9.273438-35.351563 22.179688-48.296875v54.28125zm95.699219 38.644531h-46v-13h46zm26-51.316406v-54.28125c12.890625 12.949218 20.738281 30.078125 22.132812 48.296875l1.621094 18.65625zm0 0" fill="url(#c)" />
   <path d="m243 275.402344h.179688c13.46875-.050782 24.355468-11 24.332031-24.46875-.023438-13.472656-10.953125-24.378906-24.421875-24.378906-13.472656 0-24.398438 10.90625-24.421875 24.378906-.027344 13.46875 10.859375 24.417968 24.332031 24.46875zm0-33.21875c4.753906 0 8.609375 3.855468 8.609375 8.609375 0 4.753906-3.855469 8.605469-8.609375 8.605469s-8.609375-3.851563-8.609375-8.605469c.121094-4.703125 3.90625-8.488281 8.609375-8.605469zm0 0" fill="url(#b)" />
   <path d="m243 408.78125c-4.417969 0-8 3.582031-8 8v29.160156c0 4.417969 3.582031 8 8 8s8-3.582031 8-8v-29.160156c0-4.417969-3.582031-8-8-8zm0 0" fill="url(#b)" />
   <path d="m276.085938 412.628906c-2.296876-3.777344-7.214844-4.980468-10.992188-2.683594-3.777344 2.292969-4.980469 7.210938-2.6875 10.988282l8.871094 14.601562c2.292968 3.777344 7.214844 4.976563 10.992187 2.683594 3.773438-2.292969 4.976563-7.214844 2.683594-10.992188zm0 0" fill="url(#d)" />
   <path d="m220.90625 409.945312c-3.777344-2.296874-8.695312-1.09375-10.992188 2.683594l-8.867187 14.597656c-2.292969 3.777344-1.089844 8.699219 2.683594 10.992188 3.777343 2.292969 8.699219 1.09375 10.992187-2.683594l8.871094-14.601562c2.292969-3.777344 1.089844-8.695313-2.6875-10.988282zm0 0" fill="url(#e)" />
</svg>

