<?xml version="1.0" encoding="utf-8"?>
<!-- Generator: Adobe Illustrator 16.0.0, SVG Export Plug-In . SVG Version: 6.00 Build 0)  -->
<!DOCTYPE svg PUBLIC "-//W3C//DTD SVG 1.1//EN" "http://www.w3.org/Graphics/SVG/1.1/DTD/svg11.dtd">
<svg version="1.1" id="Layer_1" xmlns="http://www.w3.org/2000/svg" xmlns:xlink="http://www.w3.org/1999/xlink" x="0px" y="0px"
	 width="612px" height="612px" viewBox="0 0 612 612" enable-background="new 0 0 612 612" xml:space="preserve">
<title>THS Mental Health Week logo</title>
<g>
	<path fill="#fff" d="M492.912,541.79l0.44,0.573l-1.178,0.181c-8.481,1.146-17.403,2.111-26.492,2.832
		c-5.86,0.475-12.032,0.868-18.368,1.146c-4.486,0.196-9.171,0.296-14.113,0.409l-7.025,0.164l-15.473,0.263l-33.006,0.589
		l-16.129,0.263l-8.955,0.146l-14.277,0.132l-9.104,0.082l-37.886,0.262h-1.638l-24.461,0.163h-9.823
		c0.54-1.375,1.13-2.832,1.817-4.42l0.196-0.442c0.966-2.178,1.965-4.421,3.177-6.549c1.199-2.269,2.979-4.178,5.157-5.534
		c2.907-1.43,6.024-2.386,9.233-2.833c2.011-0.345,3.996-0.82,5.943-1.424c2.609-0.757,4.923-2.294,6.632-4.404
		c1.489-2.114,2.357-4.604,2.505-7.188c0.082-0.901,0.115-1.802,0.115-2.784c0-1.457,0-2.881-0.164-4.272
		c-0.164-1.393-0.164-2.865-0.229-4.258l-0.131-2.259c-0.278-4.421-0.59-8.187-0.95-11.724c0-0.803-0.164-1.638-0.262-2.341
		c0.022-0.219,0.022-0.438,0-0.655c-0.018-0.45-0.067-0.898-0.147-1.343l-0.622-3.65c-0.196-0.935-0.393-1.981-0.654-3.095l0,0
		c-0.008-0.056-0.008-0.109,0-0.164c-0.394-2.015-0.803-3.849-1.212-5.519c-0.557-2.26-0.982-3.684-1.245-4.485
		c-0.262-0.803-0.393-1.276-0.458-1.507v-0.213l-0.18-0.164l-0.164,0.182c-0.605-1.803-1.294-3.604-2.096-5.519
		c-4.063-9.879-9.546-19.111-16.274-27.407c-1.899-2.31-3.963-4.635-6.156-6.895c-2.193-2.259-4.699-4.584-7.057-6.549
		c-2.486-2.38-5.516-4.117-8.825-5.061c-3.453-0.741-7.019-0.804-10.495-0.18c-15.832,2.816-28.014,4.699-38.361,5.91l-4.486,0.508
		l-4.175,0.475h-0.655c-2.464,0.318-4.948,0.455-7.434,0.41c-2.45-0.095-4.85-0.731-7.023-1.867
		c-2.095-1.08-4.089-2.347-5.959-3.781h-0.148c-1.031-0.721-2.006-1.52-2.914-2.391c-0.495-0.482-0.92-1.035-1.26-1.638
		c-0.533-1.048-0.787-2.215-0.737-3.389c0-0.606,0-1.195,0.099-1.736l1.178-10.069c0.131-1.015,0.23-1.932,0.328-2.718l0,0
		c0.327-2.685,0.491-4.126,0.491-4.126h-0.164c0-0.851,0.099-1.801,0.099-2.865c0-0.72,0-1.488,0-2.292
		c-0.108-3.534-1.105-6.986-2.898-10.036c-0.543-0.884-1.186-1.701-1.916-2.438c-0.762-0.802-1.607-1.521-2.521-2.146
		c-0.408-0.311-0.834-0.604-1.26-0.899c-1.116-0.728-2.168-1.549-3.144-2.456c-0.186-0.158-0.355-0.333-0.508-0.523
		c-1.653-1.873-2.572-4.279-2.587-6.777c-0.017-1.356,0.305-2.695,0.934-3.896c1.4-2.818,4.269-4.61,7.416-4.634
		c0.982,0,1.9,0,2.734,0.114c1.15,0.098,2.306,0.098,3.455,0h0.164c0.201,0.016,0.404,0.016,0.605,0
		c0.719-0.123,1.414-0.354,2.062-0.688l0.574-0.359l-0.885-1.375l-0.475,0.295c-0.511,0.27-1.065,0.445-1.638,0.522h-0.312h-0.195
		c-1.834-0.131-3.619-0.359-5.371-0.654c-2.621-0.379-5.175-1.135-7.58-2.242c-1.883-0.913-3.594-2.144-5.06-3.636
		c-0.501-0.509-0.961-1.057-1.375-1.638c-0.851-1.167-1.412-2.52-1.638-3.946c-0.205-1.455-0.023-2.939,0.523-4.306
		c0.475-1.185,1.021-2.338,1.638-3.455c1.046-1.84,1.845-3.812,2.374-5.86c0.441-1.694,0.662-3.438,0.655-5.19v-0.181
		c0.011-0.938-0.061-1.875-0.213-2.799c-0.144-1.008-0.622-1.936-1.358-2.637c-0.068-0.074-0.146-0.141-0.23-0.197
		c-0.67-0.433-1.414-0.742-2.193-0.916l-0.572-0.18c-0.852-0.252-1.703-0.529-2.555-0.836c-5.24-1.906-10.098-4.734-14.343-8.35
		c-0.72-0.623-1.425-1.262-2.112-1.949c-0.674-0.641-1.287-1.342-1.834-2.096c-0.941-1.301-1.457-2.863-1.473-4.469
		c0-0.197,0-0.377,0-0.574c0.209-1.844,0.842-3.614,1.85-5.174c1.005-1.615,2.145-3.144,3.406-4.567l7.449-8.646l14.097-16.373
		c4.445-4.906,8.172-10.418,11.068-16.373c1.265-2.768,2.082-5.719,2.423-8.742c0-0.867,0.131-1.637,0.131-2.439
		c-0.01-2.003-0.257-3.998-0.736-5.943c-1.107-3.92-2.662-7.699-4.634-11.265l-0.933-1.817c-1.666-3.068-3.067-6.272-4.191-9.578
		c-0.188-0.534-0.336-1.081-0.443-1.637l1.032-3.668c0.917-3.274,1.915-6.795,2.996-10.658c3.029-10.708,6.729-23.823,11.019-39.033
		c2.182-8.114,5.047-16.028,8.563-23.659c1.964-4.116,4.315-8.036,7.024-11.706c2.898-3.82,6.246-7.278,9.971-10.299
		c8.14-6.392,17.19-11.53,26.852-15.243c4.601-1.899,9.676-3.814,15.521-5.861c5.533-2.014,11.33-3.896,16.373-5.484
		c11.504-3.67,23.201-6.709,35.037-9.104c12.505-2.648,25.201-4.291,37.969-4.912c13.385-0.597,26.795,0.343,39.965,2.8
		c13.771,2.524,27.074,7.146,39.442,13.704c11.974,6.388,22.908,14.552,32.435,24.216l1.916,1.98
		c10.326,10.79,18.93,23.105,25.51,36.512c6.654,13.359,10.984,27.755,12.803,42.569c0.701,5.237,1.058,10.516,1.064,15.8
		c0,2.096,0,4.109-0.164,6.009c-0.293,7.21-1.436,14.359-3.406,21.3c-1.883,6.742-4.326,13.312-7.301,19.647
		c-3.275,6.746-6.451,12.755-9.824,18.371c-2.946,5.075-6.024,10.103-9.006,14.966c-4.125,6.762-8.039,13.098-11.705,19.776
		c-7.451,13.442-12.084,24.772-14.572,35.677c-0.098,0.476-0.229,0.966-0.344,1.441c-0.246,1.031-0.508,2.096-0.688,3.273
		l-0.59,4.553c-0.472,3.056-0.714,6.143-0.722,9.233c-0.033,5.998,0.426,11.988,1.375,17.911
		c1.924,11.165,4.537,22.199,7.826,33.041c3.275,11.198,6.943,21.743,9.824,29.7c11.078,29.513,25.43,57.69,42.781,84.009
		c4.911,7.368,9.823,14.229,14.735,20.975L492.912,541.79z M426.406,196.864c0.178-1.127,0.271-2.266,0.276-3.406
		c0.029-2.516-0.473-5.01-1.473-7.318c-0.967-2.075-2.303-3.957-3.947-5.551c-0.991-0.952-2.09-1.787-3.272-2.488
		c-2.607-1.57-5.648-2.265-8.678-1.981c3.747-5.236,6.299-11.234,7.467-17.567c0.227-1.386,0.342-2.787,0.344-4.191
		c0.107-5.896-2.014-11.616-5.943-16.013c-2.485-2.768-5.864-4.575-9.547-5.108c-3.676-0.5-7.414,0.256-10.608,2.145
		c-1.623,0.947-3.021,2.238-4.093,3.782l-0.541,0.884l0,0c-1.045-3.371-2.354-6.656-3.914-9.823
		c-1.586-3.207-3.625-6.168-6.057-8.792l-0.197-0.229c-0.246-0.245-0.475-0.508-0.721-0.736c-2.227-2.271-4.895-4.061-7.842-5.256
		c-3.365-1.41-7.025-1.973-10.658-1.638c-1.828,0.18-3.617,0.639-5.305,1.359c-1.392,0.631-2.687,1.452-3.849,2.439
		c-1.452-1.923-3.039-3.739-4.748-5.436c-3.174-3.262-6.891-5.944-10.985-7.925c-3.301-1.601-6.883-2.535-10.545-2.751
		c-3.707-0.185-7.402,0.57-10.74,2.194c-3.355,1.594-6.281,3.969-8.53,6.926c-2.141,2.84-3.357,6.271-3.486,9.823v0.213
		c-0.622-0.441-1.277-0.867-1.948-1.261c-1.587-0.927-3.266-1.684-5.011-2.259c-3.494-1.159-7.184-1.615-10.854-1.343
		c-3.575,0.275-7.054,1.29-10.217,2.979c-3.159,1.725-5.942,4.062-8.187,6.877c-2.24,2.803-3.908,6.018-4.912,9.463
		c-0.318,1.142-0.569,2.301-0.753,3.472l-0.229-0.262l-0.9-0.934c-0.307-0.332-0.635-0.645-0.982-0.934
		c-5.584-4.706-13.018-6.594-20.171-5.124c-3.5,0.697-6.753,2.307-9.431,4.666c-2.695,2.418-4.73,5.483-5.91,8.906
		c-0.905,2.606-1.365,5.347-1.359,8.104c-0.039,4.462,1.224,8.837,3.635,12.591l0.377,0.524c0.361,0.589,0.783,1.137,1.26,1.637
		l0.492,0.557l-0.295,0.377c-1.13,1.392-2.178,2.816-3.111,4.225c-1.988,2.912-3.637,6.044-4.912,9.332
		c-1.193,3.071-1.824,6.332-1.866,9.627c0,0.295,0,0.573,0,0.835c0.06,3.655,1.261,7.199,3.438,10.135
		c0.524,0.718,1.094,1.401,1.703,2.047c1.882,1.981,4.172,3.528,6.713,4.535c1.729,0.658,3.57,0.97,5.419,0.917
		c0.722-0.044,1.44-0.148,2.146-0.311c-0.099,0.163-0.213,0.311-0.328,0.475l-0.523,0.77c-0.394,0.736-0.786,1.506-1.195,2.374
		l-0.246,0.753c-0.18,0.557-0.359,1.113-0.508,1.638c-0.348,1.514-0.523,3.062-0.523,4.617c0.003,1.912,0.25,3.815,0.736,5.665
		c1.061,4.2,3.193,8.055,6.189,11.184c1.805,1.877,3.949,3.394,6.32,4.47c6.37,2.714,13.49,3.108,20.121,1.112
		c3.273-0.924,6.422-2.238,9.383-3.912c1.705-0.986,3.346-2.08,4.911-3.274c-0.128,0.478-0.216,0.966-0.262,1.457
		c0,0.345,0,0.654,0,0.998c0.013,1.617,0.329,3.216,0.933,4.716c0.793,2.021,2.004,3.852,3.553,5.37
		c1.206,1.193,2.621,2.153,4.176,2.833c3.506,1.421,7.301,1.982,11.068,1.637c3.67-0.305,7.312-0.896,10.887-1.768l15.98-3.537
		c1.596-0.52,3.316-0.52,4.912,0c0.748,0.322,1.434,0.771,2.029,1.326c0.604,0.604,1.153,1.261,1.639,1.965
		c0.736,1.048,1.424,2.178,2.062,3.275l0.785,1.309l50.625,84.157l1.408-0.853l-4.453-7.335h0.098
		c-5.768-12.665-9.514-26.155-11.1-39.981c-0.574-5.057-0.863-10.139-0.869-15.227c0-2.015,0-3.832,0.115-5.584
		c0-1.08,0.115-2.179,0.18-3.273c0-0.639,0.099-1.277,0.131-1.883l0.345-3.406c2.893,1.828,6.336,2.576,9.727,2.111
		c6.549-0.867,12.9-4.73,18.01-10.888c1.164-1.385,2.193-2.876,3.078-4.454c0.828-1.601,1.515-3.271,2.047-4.994
		c0.732-2.359,1.119-4.813,1.146-7.285c0.014-1.127-0.058-2.256-0.213-3.373c-0.285-1.838-0.979-3.59-2.031-5.125
		c-0.264-0.418-0.584-0.797-0.949-1.129l-0.735-0.736l-0.755-0.557c-0.364-0.248-0.741-0.479-1.129-0.688l2.373-1.244
		c1.394-0.737,3.029-1.638,4.603-2.555c4.764-2.767,11.574-7.236,15.815-13.999C424.479,203.887,425.803,200.455,426.406,196.864z"
		/>
</g>
</svg>
