<?xml version="1.0" encoding="utf-8"?>
<!-- Generator: Adobe Illustrator 16.0.0, SVG Export Plug-In . SVG Version: 6.00 Build 0)  -->
<!DOCTYPE svg PUBLIC "-//W3C//DTD SVG 1.1//EN" "http://www.w3.org/Graphics/SVG/1.1/DTD/svg11.dtd">
<svg version="1.1" id="Layer_1" xmlns="http://www.w3.org/2000/svg" xmlns:xlink="http://www.w3.org/1999/xlink" x="0px" y="0px"
	 width="566.343px" height="173.623px" viewBox="0 0 566.343 173.623" enable-background="new 0 0 566.343 173.623"
	 xml:space="preserve">
<g>
	<path fill="#FFFFFF" d="M13.094,140.851l0.08,3.523c0.801-1.308,1.802-2.289,3.003-2.942c1.201-0.654,2.536-0.981,4.004-0.981
		c3.417,0,5.585,1.401,6.506,4.204c0.774-1.348,1.808-2.386,3.103-3.113c1.294-0.727,2.723-1.091,4.284-1.091
		c4.645,0,7.013,2.536,7.107,7.607v14.454h-2.402v-14.273c-0.014-1.936-0.431-3.37-1.251-4.305
		c-0.821-0.934-2.159-1.401-4.014-1.401c-1.722,0.027-3.177,0.584-4.364,1.672c-1.188,1.088-1.849,2.412-1.982,3.974v14.334h-2.402
		v-14.454c-0.014-1.854-0.45-3.239-1.312-4.154c-0.86-0.914-2.186-1.371-3.974-1.371c-1.508,0-2.803,0.431-3.884,1.291
		c-1.081,0.861-1.882,2.14-2.402,3.834v14.854h-2.402v-21.661H13.094z"/>
	<path fill="#FFFFFF" d="M55.636,162.912c-1.842,0-3.507-0.453-4.995-1.361c-1.489-0.907-2.646-2.172-3.474-3.794
		c-0.828-1.621-1.241-3.439-1.241-5.455v-0.86c0-2.082,0.403-3.957,1.211-5.626c0.808-1.668,1.932-2.979,3.374-3.934
		s3.003-1.432,4.685-1.432c2.629,0,4.714,0.897,6.256,2.692c1.541,1.796,2.312,4.248,2.312,7.357v1.342H48.309v0.46
		c0,2.456,0.704,4.501,2.112,6.136c1.408,1.636,3.18,2.453,5.315,2.453c1.281,0,2.412-0.233,3.394-0.701
		c0.98-0.467,1.872-1.214,2.672-2.242l1.501,1.141C61.542,161.638,58.985,162.912,55.636,162.912z M55.195,142.492
		c-1.802,0-3.32,0.66-4.554,1.982c-1.235,1.32-1.986,3.096-2.252,5.324h12.993v-0.26c-0.067-2.082-0.661-3.776-1.782-5.085
		C58.479,143.146,57.01,142.492,55.195,142.492z"/>
	<path fill="#FFFFFF" d="M70.71,140.851l0.08,3.704c0.814-1.335,1.828-2.353,3.043-3.054c1.214-0.7,2.556-1.051,4.024-1.051
		c2.322,0,4.05,0.654,5.185,1.962c1.134,1.309,1.708,3.271,1.722,5.886v14.214h-2.382v-14.234c-0.014-1.935-0.424-3.376-1.231-4.324
		c-0.808-0.947-2.099-1.421-3.874-1.421c-1.481,0-2.793,0.464-3.934,1.392c-1.142,0.928-1.986,2.179-2.533,3.754v14.834h-2.382
		v-21.661H70.71z"/>
	<path fill="#FFFFFF" d="M94.674,135.305v5.546h4.484v1.962h-4.484v14.45c0,1.202,0.217,2.098,0.65,2.686s1.158,0.882,2.172,0.882
		c0.4,0,1.047-0.066,1.942-0.2l0.1,1.945c-0.627,0.225-1.481,0.337-2.562,0.337c-1.642,0-2.836-0.477-3.583-1.432
		c-0.748-0.954-1.121-2.358-1.121-4.214v-14.454h-3.984v-1.962h3.984v-5.546H94.674z"/>
	<path fill="#FFFFFF" d="M117.796,162.512c-0.24-0.681-0.394-1.688-0.46-3.023c-0.841,1.095-1.912,1.939-3.213,2.533
		c-1.302,0.594-2.68,0.891-4.134,0.891c-2.082,0-3.767-0.58-5.055-1.742c-1.288-1.16-1.932-2.629-1.932-4.404
		c0-2.108,0.877-3.776,2.633-5.004c1.754-1.229,4.2-1.842,7.337-1.842h4.344v-2.463c0-1.548-0.478-2.766-1.431-3.653
		c-0.955-0.888-2.346-1.331-4.174-1.331c-1.668,0-3.05,0.427-4.144,1.281c-1.095,0.854-1.642,1.881-1.642,3.082l-2.402-0.02
		c0-1.722,0.801-3.213,2.402-4.475c1.602-1.261,3.57-1.892,5.906-1.892c2.416,0,4.321,0.604,5.715,1.812
		c1.395,1.208,2.112,2.893,2.152,5.055v10.25c0,2.096,0.22,3.664,0.661,4.705v0.24H117.796z M110.269,160.79
		c1.602,0,3.033-0.387,4.294-1.161c1.261-0.773,2.178-1.809,2.752-3.104v-4.764h-4.284c-2.389,0.026-4.258,0.464-5.605,1.311
		c-1.348,0.848-2.022,2.012-2.022,3.494c0,1.214,0.45,2.222,1.352,3.022C107.656,160.39,108.828,160.79,110.269,160.79z"/>
	<path fill="#FFFFFF" d="M128.767,162.512h-2.402v-30.75h2.402V162.512z"/>
	<path fill="#FFFFFF" d="M157.595,144.514c0.787-1.294,1.794-2.295,3.022-3.002c1.228-0.708,2.569-1.062,4.024-1.062
		c2.322,0,4.05,0.654,5.185,1.962c1.134,1.309,1.708,3.271,1.722,5.886v14.214h-2.383v-14.234c-0.013-1.935-0.424-3.376-1.23-4.324
		c-0.808-0.947-2.1-1.421-3.874-1.421c-1.481,0-2.793,0.464-3.934,1.392c-1.142,0.928-1.985,2.179-2.532,3.754v14.834h-2.383v-30.75
		h2.383V144.514z"/>
	<path fill="#FFFFFF" d="M186.103,162.912c-1.842,0-3.508-0.453-4.995-1.361c-1.488-0.907-2.646-2.172-3.474-3.794
		c-0.828-1.621-1.241-3.439-1.241-5.455v-0.86c0-2.082,0.403-3.957,1.211-5.626c0.808-1.668,1.933-2.979,3.374-3.934
		s3.002-1.432,4.684-1.432c2.63,0,4.715,0.897,6.257,2.692c1.541,1.796,2.312,4.248,2.312,7.357v1.342h-15.455v0.46
		c0,2.456,0.704,4.501,2.112,6.136c1.408,1.636,3.18,2.453,5.315,2.453c1.281,0,2.412-0.233,3.394-0.701
		c0.98-0.467,1.872-1.214,2.673-2.242l1.501,1.141C192.008,161.638,189.453,162.912,186.103,162.912z M185.662,142.492
		c-1.801,0-3.319,0.66-4.554,1.982c-1.235,1.32-1.985,3.096-2.253,5.324h12.993v-0.26c-0.067-2.082-0.661-3.776-1.782-5.085
		C188.945,143.146,187.477,142.492,185.662,142.492z"/>
	<path fill="#FFFFFF" d="M212.57,162.512c-0.24-0.681-0.395-1.688-0.461-3.023c-0.841,1.095-1.912,1.939-3.213,2.533
		c-1.302,0.594-2.68,0.891-4.135,0.891c-2.082,0-3.767-0.58-5.055-1.742c-1.288-1.16-1.932-2.629-1.932-4.404
		c0-2.108,0.877-3.776,2.633-5.004c1.755-1.229,4.2-1.842,7.337-1.842h4.345v-2.463c0-1.548-0.478-2.766-1.432-3.653
		c-0.955-0.888-2.346-1.331-4.174-1.331c-1.669,0-3.051,0.427-4.145,1.281c-1.095,0.854-1.642,1.881-1.642,3.082l-2.402-0.02
		c0-1.722,0.801-3.213,2.402-4.475c1.602-1.261,3.57-1.892,5.905-1.892c2.416,0,4.321,0.604,5.716,1.812
		c1.395,1.208,2.112,2.893,2.152,5.055v10.25c0,2.096,0.22,3.664,0.661,4.705v0.24H212.57z M205.042,160.79
		c1.602,0,3.032-0.387,4.294-1.161c1.261-0.773,2.179-1.809,2.753-3.104v-4.764h-4.285c-2.389,0.026-4.257,0.464-5.605,1.311
		c-1.348,0.848-2.021,2.012-2.021,3.494c0,1.214,0.45,2.222,1.352,3.022C202.429,160.39,203.601,160.79,205.042,160.79z"/>
	<path fill="#FFFFFF" d="M223.54,162.512h-2.402v-30.75h2.402V162.512z"/>
	<path fill="#FFFFFF" d="M233.77,135.305v5.546h4.484v1.962h-4.484v14.45c0,1.202,0.217,2.098,0.65,2.686s1.158,0.882,2.173,0.882
		c0.4,0,1.047-0.066,1.941-0.2l0.1,1.945c-0.627,0.225-1.48,0.337-2.562,0.337c-1.641,0-2.836-0.477-3.583-1.432
		c-0.748-0.954-1.121-2.358-1.121-4.214v-14.454h-3.983v-1.962h3.983v-5.546H233.77z"/>
	<path fill="#FFFFFF" d="M245.601,144.514c0.787-1.294,1.794-2.295,3.022-3.002c1.228-0.708,2.569-1.062,4.024-1.062
		c2.322,0,4.05,0.654,5.185,1.962c1.134,1.309,1.708,3.271,1.722,5.886v14.214h-2.383v-14.234c-0.013-1.935-0.424-3.376-1.23-4.324
		c-0.808-0.947-2.1-1.421-3.874-1.421c-1.481,0-2.793,0.464-3.934,1.392c-1.142,0.928-1.985,2.179-2.532,3.754v14.834h-2.383v-30.75
		h2.383V144.514z"/>
	<path fill="#FFFFFF" d="M310.785,157.527l0.359,1.861l0.48-1.962l5.205-16.576h2.043l5.145,16.437l0.561,2.281l0.461-2.102
		l4.443-16.616h2.482l-6.306,21.661h-2.042l-5.565-17.177l-0.261-1.181l-0.26,1.201l-5.465,17.156h-2.043l-6.285-21.661h2.462
		L310.785,157.527z"/>
	<path fill="#FFFFFF" d="M344.898,162.912c-1.842,0-3.508-0.453-4.995-1.361c-1.488-0.907-2.646-2.172-3.474-3.794
		c-0.828-1.621-1.241-3.439-1.241-5.455v-0.86c0-2.082,0.403-3.957,1.211-5.626c0.808-1.668,1.933-2.979,3.374-3.934
		s3.002-1.432,4.684-1.432c2.63,0,4.715,0.897,6.257,2.692c1.541,1.796,2.312,4.248,2.312,7.357v1.342H337.57v0.46
		c0,2.456,0.704,4.501,2.112,6.136c1.408,1.636,3.18,2.453,5.315,2.453c1.281,0,2.412-0.233,3.394-0.701
		c0.98-0.467,1.872-1.214,2.673-2.242l1.501,1.141C350.803,161.638,348.248,162.912,344.898,162.912z M344.457,142.492
		c-1.801,0-3.319,0.66-4.554,1.982c-1.235,1.32-1.985,3.096-2.253,5.324h12.993v-0.26c-0.067-2.082-0.661-3.776-1.782-5.085
		C347.74,143.146,346.272,142.492,344.457,142.492z"/>
	<path fill="#FFFFFF" d="M366.08,162.912c-1.842,0-3.508-0.453-4.995-1.361c-1.488-0.907-2.646-2.172-3.474-3.794
		c-0.828-1.621-1.241-3.439-1.241-5.455v-0.86c0-2.082,0.403-3.957,1.211-5.626c0.808-1.668,1.933-2.979,3.374-3.934
		s3.002-1.432,4.684-1.432c2.63,0,4.715,0.897,6.257,2.692c1.541,1.796,2.312,4.248,2.312,7.357v1.342h-15.455v0.46
		c0,2.456,0.704,4.501,2.112,6.136c1.408,1.636,3.18,2.453,5.315,2.453c1.281,0,2.412-0.233,3.394-0.701
		c0.98-0.467,1.872-1.214,2.673-2.242l1.501,1.141C371.985,161.638,369.429,162.912,366.08,162.912z M365.638,142.492
		c-1.801,0-3.319,0.66-4.554,1.982c-1.235,1.32-1.985,3.096-2.253,5.324h12.993v-0.26c-0.067-2.082-0.661-3.776-1.782-5.085
		C368.921,143.146,367.454,142.492,365.638,142.492z"/>
	<path fill="#FFFFFF" d="M384.015,151.602l-2.742,2.643v8.268h-2.402v-30.75h2.402v19.68l2.262-2.443l8.289-8.147h3.022
		l-9.188,9.129l9.989,12.532h-2.862L384.015,151.602z"/>
</g>
<g>
	<g>
		<defs>
			<rect id="SVGID_1_" x="448.734" y="11.215" width="117.609" height="149.418"/>
		</defs>
		<clipPath id="SVGID_2_">
			<use xlink:href="#SVGID_1_"  overflow="visible"/>
		</clipPath>
		<g clip-path="url(#SVGID_2_)">
			<defs>
				<rect id="SVGID_3_" x="448.734" y="11.215" width="117.609" height="149.418"/>
			</defs>
			<clipPath id="SVGID_4_">
				<use xlink:href="#SVGID_3_"  overflow="visible"/>
			</clipPath>
			<path clip-path="url(#SVGID_4_)" fill="#273138" d="M566.264,157.713l0.079,0.49c0,0-0.77,0.12-2.18,0.315l-0.785,0.114
				c-2.604,0.355-5.335,0.646-8.12,0.87c-1.795,0.146-3.685,0.266-5.63,0.351c-1.375,0.06-2.805,0.09-4.314,0.125
				c-0.705,0.015-1.42,0.029-2.15,0.05l-4.729,0.08c-3.205,0.06-6.585,0.115-10.075,0.18c-1.67,0.025-3.315,0.055-4.925,0.08
				l-2.74,0.045c-1.49,0.01-2.94,0.025-4.36,0.04l-2.785,0.025c-4.319,0.029-8.234,0.055-11.569,0.08l-0.525,0.005
				c-3.05,0.02-5.59,0.035-7.465,0.05c-1.704,0.01-2.865,0.015-3.375,0.02v-0.25l0.229,0.091c0.046-0.11,0.086-0.226,0.136-0.341
				c0.614-0.005,1.635-0.01,3.005-0.02c1.88-0.015,4.415-0.03,7.47-0.05l0.525-0.005c3.33-0.025,7.25-0.051,11.569-0.08l2.78-0.025
				c1.42-0.015,2.875-0.03,4.36-0.04l2.734-0.045c1.615-0.025,3.261-0.055,4.926-0.08c3.489-0.064,6.869-0.12,10.08-0.18l4.725-0.08
				c0.725-0.021,1.445-0.035,2.145-0.05c1.511-0.035,2.94-0.065,4.311-0.125c1.935-0.085,3.82-0.205,5.609-0.351
				c2.775-0.22,5.5-0.515,8.091-0.864l0.359-0.056c0.09,0.12,0.181,0.235,0.266,0.345l0.39-0.31c-0.03-0.035-0.06-0.075-0.09-0.115
				C565.548,157.823,566.264,157.713,566.264,157.713"/>
			<path clip-path="url(#SVGID_4_)" fill="#273138" d="M564.234,158.003c0.029,0.04,0.061,0.08,0.09,0.115l-0.391,0.311
				c-0.085-0.11-0.175-0.226-0.264-0.346l0.424-0.06C564.138,158.019,564.188,158.009,564.234,158.003"/>
			<path clip-path="url(#SVGID_4_)" fill="#FDFEFF" d="M564.234,158.003c-0.046,0.006-0.096,0.016-0.141,0.021l-0.424,0.06
				c-0.045-0.055-0.09-0.114-0.135-0.175l-0.271-0.35c-1.545-2.061-3.024-4.155-4.524-6.405c-5.25-7.945-9.65-16.575-13.065-25.655
				c-0.889-2.43-2.035-5.649-3.009-9.069c-0.906-3.216-1.846-6.535-2.392-10.091c-0.295-1.869-0.435-3.71-0.42-5.47
				c0.011-1.024,0.08-1.95,0.221-2.82c0.06-0.46,0.12-0.925,0.181-1.39c0.054-0.335,0.134-0.66,0.209-0.975
				c0.036-0.146,0.076-0.295,0.105-0.44c0.761-3.33,2.176-6.79,4.449-10.895c1.12-2.02,2.316-3.975,3.575-6.04
				c0.911-1.485,1.851-3.02,2.75-4.57c1.01-1.715,1.986-3.55,2.98-5.61c0.79-1.78,1.681-3.875,2.229-6.045
				c0.561-1.875,0.901-3.985,1.04-6.47c0.036-0.58,0.05-1.195,0.05-1.835c0-1.585-0.108-3.21-0.324-4.825
				c-0.556-4.535-1.87-8.91-3.909-13.015c-2.012-4.095-4.631-7.845-7.79-11.15c-0.196-0.205-0.392-0.405-0.585-0.605
				c-2.99-3.02-6.325-5.51-9.905-7.41c-3.646-1.955-7.696-3.365-12.045-4.185c-3.835-0.725-7.951-1-12.231-0.815
				c-3.699,0.155-7.489,0.64-11.595,1.475c-3.49,0.705-6.99,1.62-10.689,2.795c-1.521,0.485-3.29,1.06-4.98,1.675
				c-1.785,0.625-3.334,1.21-4.74,1.79c-3.455,1.425-6.135,2.945-8.2,4.655c-1.159,0.945-2.185,2.005-3.045,3.145
				c-0.784,1.055-1.51,2.255-2.144,3.575c-1.161,2.395-1.901,4.785-2.616,7.225c-1.309,4.645-2.439,8.65-3.365,11.92
				c-0.33,1.18-0.635,2.27-0.915,3.255l-0.313,1.12c-0.011-0.02-0.011-0.035-0.016-0.055l-0.245,0.055l-0.239-0.07l0.335-1.185
				c0.274-0.985,0.585-2.075,0.915-3.255c0.924-3.275,2.054-7.28,3.364-11.925c0.725-2.465,1.471-4.875,2.645-7.305
				c0.651-1.345,1.39-2.575,2.196-3.655c0.884-1.17,1.934-2.26,3.125-3.235c2.104-1.74,4.83-3.285,8.33-4.725
				c1.414-0.585,2.974-1.175,4.764-1.8c1.696-0.62,3.465-1.195,4.996-1.685c3.719-1.18,7.229-2.095,10.74-2.805
				c4.13-0.84,7.949-1.325,11.675-1.485c4.313-0.19,8.469,0.09,12.339,0.825c4.4,0.83,8.5,2.255,12.19,4.235
				c3.625,1.92,7,4.445,10.024,7.5c0.2,0.2,0.396,0.4,0.59,0.61c3.195,3.34,5.846,7.135,7.881,11.275
				c2.064,4.155,3.396,8.585,3.96,13.17c0.216,1.635,0.324,3.28,0.324,4.89c0,0.65-0.014,1.275-0.05,1.865
				c-0.145,2.52-0.49,4.67-1.059,6.57c-0.557,2.2-1.455,4.315-2.256,6.125c-1.006,2.08-1.984,3.93-3.006,5.65
				c-0.903,1.555-1.845,3.095-2.75,4.58c-1.26,2.065-2.449,4.01-3.563,6.02c-2.255,4.065-3.651,7.485-4.401,10.765
				c-0.035,0.149-0.069,0.3-0.109,0.45c-0.074,0.314-0.15,0.619-0.199,0.925c-0.056,0.465-0.116,0.93-0.181,1.395
				c-0.136,0.851-0.205,1.745-0.216,2.75c-0.015,1.73,0.125,3.545,0.41,5.386c0.545,3.529,1.481,6.835,2.38,10.029
				c0.971,3.405,2.115,6.615,3,9.035c3.401,9.045,7.78,17.646,13.017,25.55c1.488,2.245,2.965,4.335,4.505,6.386l0.264,0.35
				C564.04,157.748,564.138,157.878,564.234,158.003"/>
			<path clip-path="url(#SVGID_4_)" fill="#FFFFFF" d="M563.535,157.908c0.044,0.06,0.089,0.12,0.134,0.175l-0.36,0.055
				c-2.59,0.351-5.313,0.646-8.09,0.865c-1.79,0.146-3.675,0.266-5.609,0.351c-1.37,0.06-2.801,0.09-4.311,0.125
				c-0.699,0.015-1.42,0.029-2.145,0.05l-4.726,0.08c-3.21,0.06-6.59,0.114-10.079,0.18c-1.666,0.025-3.311,0.055-4.926,0.08
				l-2.734,0.045c-1.485,0.01-2.94,0.025-4.36,0.04l-2.78,0.025c-4.319,0.029-8.24,0.055-11.569,0.08l-0.525,0.005
				c-3.055,0.02-5.59,0.034-7.47,0.05c-1.37,0.01-2.391,0.015-3.005,0.02c0.165-0.42,0.345-0.864,0.556-1.35l0.059-0.135
				c0.295-0.665,0.601-1.351,0.971-2c0.46-0.79,0.975-1.346,1.574-1.69c0.881-0.49,1.865-0.68,2.82-0.865
				c0.605-0.114,1.225-0.239,1.815-0.435c0.895-0.3,1.58-0.75,2.024-1.345c0.426-0.565,0.686-1.306,0.766-2.195
				c0.024-0.275,0.035-0.55,0.035-0.85c0-0.445-0.025-0.881-0.051-1.306c-0.024-0.439-0.05-0.875-0.069-1.3l-0.04-0.69
				c-0.085-1.35-0.181-2.52-0.29-3.579c-0.025-0.245-0.05-0.485-0.08-0.716c0.015-0.069,0.02-0.14,0.02-0.199
				c0-0.131-0.024-0.271-0.045-0.41l-0.189-1.115c-0.061-0.285-0.12-0.605-0.2-0.945v-0.01v-0.01c-0.005-0.016-0.01-0.035-0.01-0.05
				c-0.12-0.615-0.245-1.176-0.37-1.686c-0.17-0.689-0.3-1.125-0.38-1.37c-0.075-0.239-0.12-0.39-0.141-0.46l-0.02-0.064
				l-0.056-0.05l-0.05,0.055c-0.185-0.55-0.395-1.101-0.64-1.686c-1.195-2.939-2.915-5.835-4.97-8.369
				c-0.58-0.705-1.211-1.415-1.881-2.105c-0.71-0.725-1.435-1.4-2.154-2.01c-0.775-0.66-1.635-1.306-2.695-1.545
				c-1.125-0.29-2.3-0.186-3.205-0.056c-4.835,0.86-8.555,1.436-11.714,1.806c-0.46,0.055-0.921,0.104-1.371,0.154
				c-0.43,0.051-0.86,0.101-1.274,0.146l-0.2,0.024c-0.795,0.08-1.54,0.16-2.271,0.125c-0.75-0.029-1.49-0.225-2.145-0.569
				c-0.67-0.335-1.26-0.771-1.78-1.155l-0.055-0.04c-0.325-0.24-0.636-0.47-0.891-0.729c-0.17-0.176-0.295-0.341-0.385-0.511
				c-0.155-0.284-0.225-0.609-0.225-1.034c0-0.186,0.015-0.365,0.029-0.53l0.36-3.075c0.04-0.31,0.07-0.59,0.1-0.83v-0.005
				c0.101-0.82,0.15-1.26,0.15-1.26l-0.05-0.005c0.02-0.261,0.03-0.551,0.03-0.875c0-0.221-0.006-0.455-0.021-0.7
				c-0.07-1.205-0.36-2.21-0.885-3.065c-0.175-0.279-0.365-0.524-0.585-0.745c-0.215-0.225-0.465-0.439-0.74-0.63
				c-0.125-0.095-0.254-0.185-0.385-0.274c-0.325-0.226-0.665-0.46-0.96-0.75c-0.056-0.045-0.105-0.101-0.155-0.16
				c-0.504-0.57-0.79-1.32-0.79-2.07c0-0.439,0.095-0.835,0.286-1.189c0.489-0.98,1.514-1.45,2.264-1.415
				c0.301,0.005,0.58,0.02,0.835,0.034c0.401,0.025,0.75,0.046,1.056,0.011h0.02h0.005h0.021h0.005
				c0.075-0.005,0.145-0.016,0.185-0.025c0.28-0.045,0.486-0.14,0.63-0.21l0.176-0.11l-0.271-0.42l-0.145,0.09
				c-0.11,0.056-0.256,0.125-0.49,0.16c-0.03,0.005-0.061,0.011-0.095,0.016c-0.005-0.005-0.016,0-0.021,0h-0.015h-0.016
				c-0.559-0.04-1.104-0.11-1.64-0.2c-0.65-0.11-1.5-0.285-2.314-0.686c-0.62-0.3-1.15-0.67-1.564-1.095
				c-0.165-0.17-0.301-0.33-0.421-0.5c-0.271-0.385-0.436-0.79-0.494-1.205c-0.016-0.115-0.026-0.229-0.026-0.345
				c0-0.325,0.061-0.65,0.186-0.97c0.131-0.355,0.305-0.695,0.49-1.055c0.284-0.56,0.585-1.135,0.726-1.79
				c0.134-0.51,0.199-1.045,0.199-1.585v-0.055c0-0.32-0.021-0.6-0.065-0.855c-0.055-0.32-0.185-0.59-0.415-0.805
				c-0.02-0.025-0.05-0.045-0.069-0.06c-0.211-0.15-0.44-0.215-0.67-0.28l-0.176-0.055c-0.26-0.075-0.52-0.16-0.779-0.255
				c-0.521-0.19-1.035-0.41-1.53-0.66c-1.025-0.515-1.98-1.15-2.851-1.89c-0.22-0.19-0.435-0.385-0.644-0.595
				c-0.221-0.21-0.401-0.42-0.562-0.64c-0.289-0.405-0.449-0.89-0.449-1.365c0-0.06,0.005-0.115,0.011-0.175
				c0.04-0.495,0.229-1.025,0.563-1.58c0.315-0.525,0.7-1,1.041-1.395l2.274-2.64c1.49-1.735,2.93-3.41,4.305-5.005
				c1.21-1.42,2.556-3.12,3.38-4.985c0.405-0.915,0.655-1.815,0.74-2.67c0.025-0.265,0.04-0.515,0.04-0.745
				c0-0.585-0.075-1.195-0.225-1.815c-0.335-1.325-0.91-2.45-1.415-3.44c-0.1-0.19-0.19-0.37-0.285-0.555
				c-0.504-0.99-1.015-2.035-1.28-2.925c-0.06-0.175-0.104-0.335-0.135-0.495l0.315-1.12c0.279-0.985,0.585-2.075,0.915-3.255
				c0.925-3.27,2.056-7.275,3.364-11.92c0.715-2.44,1.455-4.83,2.615-7.225c0.635-1.32,1.36-2.52,2.146-3.575
				c0.859-1.14,1.885-2.2,3.045-3.145c2.064-1.71,4.745-3.23,8.2-4.655c1.404-0.58,2.954-1.165,4.739-1.79
				c1.69-0.615,3.46-1.19,4.98-1.675c3.7-1.175,7.2-2.09,10.689-2.795c4.105-0.835,7.896-1.32,11.596-1.475
				c4.279-0.185,8.395,0.09,12.229,0.815c4.35,0.82,8.4,2.23,12.045,4.185c3.58,1.9,6.915,4.39,9.906,7.41
				c0.194,0.2,0.389,0.4,0.585,0.605c3.159,3.305,5.779,7.055,7.79,11.15c2.039,4.105,3.354,8.48,3.909,13.015
				c0.216,1.615,0.325,3.24,0.325,4.825c0,0.64-0.016,1.255-0.051,1.835c-0.14,2.485-0.479,4.595-1.04,6.47
				c-0.55,2.17-1.439,4.265-2.229,6.045c-0.995,2.06-1.97,3.895-2.98,5.61c-0.899,1.55-1.84,3.085-2.75,4.57
				c-1.26,2.065-2.455,4.02-3.574,6.04c-2.274,4.105-3.69,7.565-4.45,10.895c-0.03,0.145-0.07,0.295-0.105,0.44
				c-0.075,0.314-0.155,0.64-0.21,0.975c-0.06,0.465-0.12,0.93-0.18,1.39c-0.141,0.87-0.21,1.795-0.22,2.82
				c-0.016,1.76,0.125,3.6,0.42,5.47c0.545,3.556,1.484,6.875,2.39,10.09c0.975,3.42,2.121,6.641,3.01,9.07
				c3.415,9.08,7.815,17.71,13.065,25.655c1.5,2.25,2.979,4.345,4.524,6.405L563.535,157.908z M543.224,52.573
				c0.055-0.36,0.084-0.71,0.084-1.04c0-0.81-0.148-1.56-0.449-2.235c-0.29-0.63-0.71-1.215-1.205-1.695
				c-0.295-0.285-0.635-0.54-1.005-0.76c-0.835-0.49-1.771-0.7-2.65-0.605c1.28-1.895,2.036-3.655,2.305-5.365
				c0.07-0.43,0.106-0.86,0.106-1.28c0-1.89-0.646-3.625-1.816-4.89c-0.8-0.87-1.84-1.42-2.915-1.56
				c-1.104-0.155-2.255,0.075-3.239,0.655c-0.529,0.32-0.95,0.71-1.25,1.155c-0.061,0.095-0.115,0.185-0.165,0.27v-0.01
				c-0.36-1.135-0.75-2.12-1.195-3.01c-0.555-1.08-1.16-1.96-1.85-2.685l-0.061-0.07c-0.075-0.075-0.145-0.155-0.22-0.225
				c-0.725-0.715-1.539-1.25-2.405-1.585c-1.049-0.43-2.174-0.595-3.255-0.485c-0.625,0.07-1.155,0.21-1.62,0.415
				c-0.424,0.195-0.825,0.445-1.174,0.745c-0.446-0.595-0.931-1.16-1.446-1.675c-1.029-1.04-2.16-1.855-3.354-2.42
				c-1.056-0.5-2.141-0.785-3.22-0.84c-1.061-0.07-2.195,0.16-3.28,0.67c-1,0.465-1.896,1.195-2.605,2.115
				c-0.484,0.68-1.064,1.75-1.064,3.01v0.065c-0.19-0.135-0.391-0.265-0.596-0.385c-0.519-0.32-1.09-0.535-1.529-0.69
				c-1.07-0.355-2.216-0.495-3.315-0.41c-1.095,0.085-2.174,0.4-3.12,0.91c-0.935,0.51-1.774,1.215-2.484,2.1
				c-0.686,0.87-1.19,1.84-1.49,2.89c-0.105,0.38-0.181,0.735-0.23,1.06c-0.02-0.025-0.04-0.05-0.069-0.08l-0.275-0.285
				c-0.1-0.105-0.2-0.205-0.3-0.285c-1.66-1.425-3.96-2.01-6.16-1.565c-1.146,0.23-2.165,0.72-2.935,1.415
				c-0.806,0.71-1.431,1.65-1.806,2.72c-0.274,0.79-0.415,1.625-0.415,2.475c0,1.41,0.385,2.735,1.111,3.845l0.114,0.16
				c0.114,0.17,0.234,0.345,0.386,0.49l0.148,0.17l-0.09,0.115c-0.345,0.425-0.665,0.86-0.949,1.29
				c-0.646,0.955-1.155,1.915-1.511,2.85c-0.38,1.015-0.569,2.005-0.569,2.94c0,0.09,0,0.175,0.005,0.255
				c0.015,1.11,0.39,2.21,1.051,3.095c0.154,0.21,0.324,0.42,0.529,0.635c0.585,0.61,1.29,1.09,2.05,1.385
				c0.595,0.21,1.135,0.305,1.655,0.28c0.225-0.015,0.444-0.045,0.654-0.095c-0.029,0.05-0.064,0.095-0.099,0.145
				c-0.046,0.065-0.096,0.135-0.161,0.235c-0.12,0.225-0.24,0.46-0.365,0.725l-0.075,0.23c-0.055,0.17-0.109,0.34-0.154,0.51
				c-0.105,0.455-0.159,0.93-0.159,1.41c0,0.575,0.074,1.155,0.224,1.73c0.335,1.305,0.99,2.485,1.891,3.415
				c0.574,0.59,1.225,1.05,1.93,1.365c1.795,0.82,3.975,0.94,6.145,0.34c0.99-0.28,1.955-0.68,2.865-1.195
				c0.521-0.295,1.025-0.625,1.505-0.985c-0.04,0.145-0.064,0.295-0.079,0.445c-0.011,0.105-0.011,0.2-0.011,0.305
				c0,0.47,0.095,0.955,0.285,1.44c0.24,0.615,0.615,1.18,1.085,1.64c0.375,0.37,0.805,0.66,1.275,0.865
				c0.939,0.415,2.074,0.58,3.38,0.5c1.14-0.07,2.265-0.305,3.325-0.54l4.88-1.08c0.585-0.125,1.06-0.17,1.479,0.01
				c0.221,0.09,0.426,0.23,0.62,0.405c0.165,0.16,0.34,0.365,0.505,0.6c0.226,0.32,0.436,0.665,0.63,1
				c0.08,0.135,0.16,0.27,0.24,0.4l15.485,25.675l0.43-0.26l-1.354-2.246l0.029-0.015c-1.77-3.9-2.909-8.005-3.389-12.21
				c-0.176-1.55-0.266-3.115-0.266-4.65c0-0.615,0.01-1.17,0.034-1.705c0.011-0.33,0.035-0.665,0.056-1
				c0.015-0.195,0.03-0.39,0.04-0.575l0.104-1.04c0.875,0.555,1.946,0.79,2.97,0.645c1.985-0.265,3.94-1.445,5.511-3.325
				c0.319-0.37,0.625-0.815,0.939-1.36c0.295-0.595,0.49-1.065,0.625-1.525c0.23-0.77,0.351-1.515,0.351-2.225
				c0-0.34-0.03-0.69-0.085-1.04c-0.08-0.55-0.3-1.095-0.62-1.565c-0.075-0.12-0.17-0.235-0.29-0.345
				c-0.075-0.08-0.15-0.155-0.226-0.225l-0.229-0.17c-0.111-0.075-0.227-0.145-0.346-0.21l0.725-0.38
				c0.425-0.225,0.925-0.495,1.405-0.78c1.455-0.845,3.535-2.21,4.83-4.275C542.638,54.668,543.043,53.643,543.224,52.573"/>
			<path clip-path="url(#SVGID_4_)" fill="#FDFEFF" d="M543.308,51.533c0,0.33-0.029,0.68-0.085,1.04
				c-0.179,1.07-0.585,2.095-1.2,3.06c-1.295,2.065-3.375,3.43-4.829,4.275c-0.48,0.285-0.98,0.555-1.404,0.78l-0.727,0.38
				c0.12,0.065,0.235,0.135,0.347,0.21l0.229,0.17c0.075,0.07,0.151,0.145,0.226,0.225c0.12,0.11,0.216,0.225,0.29,0.345
				c0.319,0.47,0.54,1.015,0.619,1.565c0.057,0.35,0.086,0.7,0.086,1.04c0,0.71-0.12,1.455-0.351,2.225
				c-0.134,0.46-0.33,0.93-0.625,1.525c-0.314,0.545-0.62,0.99-0.939,1.36c-1.569,1.88-3.524,3.06-5.511,3.325
				c-1.023,0.145-2.095-0.09-2.97-0.645l-0.104,1.04c-0.011,0.185-0.024,0.38-0.04,0.575c-0.021,0.335-0.046,0.67-0.056,1
				c-0.024,0.535-0.035,1.09-0.035,1.705c0,1.535,0.091,3.1,0.267,4.65c0.479,4.205,1.619,8.31,3.389,12.21l-0.03,0.015l1.356,2.245
				l-0.431,0.26l-15.484-25.675c-0.081-0.13-0.161-0.265-0.241-0.4c-0.194-0.335-0.405-0.68-0.63-1
				c-0.165-0.235-0.339-0.44-0.504-0.6c-0.196-0.175-0.401-0.315-0.621-0.405c-0.419-0.18-0.895-0.135-1.479-0.01l-4.881,1.08
				c-1.059,0.235-2.184,0.47-3.324,0.54c-1.306,0.08-2.44-0.085-3.38-0.5c-0.471-0.205-0.899-0.495-1.274-0.865
				c-0.471-0.46-0.846-1.025-1.085-1.64c-0.191-0.485-0.286-0.97-0.286-1.44c0-0.105,0-0.2,0.01-0.305
				c0.016-0.15,0.04-0.3,0.08-0.445c-0.479,0.36-0.984,0.69-1.505,0.985c-0.91,0.515-1.875,0.915-2.865,1.195
				c-2.17,0.6-4.349,0.48-6.144-0.34c-0.705-0.315-1.356-0.775-1.931-1.365c-0.899-0.93-1.556-2.11-1.891-3.415
				c-0.149-0.575-0.224-1.155-0.224-1.73c0-0.48,0.054-0.955,0.159-1.41c0.045-0.17,0.101-0.34,0.154-0.51l0.075-0.23
				c0.125-0.265,0.246-0.5,0.366-0.725c0.063-0.1,0.114-0.17,0.16-0.235c0.034-0.05,0.068-0.095,0.099-0.145
				c-0.21,0.05-0.429,0.08-0.655,0.095c-0.519,0.025-1.059-0.07-1.654-0.28c-0.761-0.295-1.465-0.775-2.051-1.385
				c-0.204-0.215-0.375-0.425-0.528-0.635c-0.66-0.885-1.035-1.985-1.051-3.095c-0.006-0.08-0.006-0.165-0.006-0.255
				c0-0.935,0.191-1.925,0.57-2.94c0.355-0.935,0.866-1.895,1.51-2.85c0.285-0.43,0.606-0.865,0.95-1.29l0.09-0.115l-0.148-0.17
				c-0.151-0.145-0.271-0.32-0.387-0.49l-0.113-0.16c-0.727-1.11-1.111-2.435-1.111-3.845c0-0.85,0.14-1.685,0.415-2.475
				c0.375-1.07,1-2.01,1.805-2.72c0.771-0.695,1.79-1.185,2.937-1.415c2.199-0.445,4.5,0.14,6.159,1.565
				c0.1,0.08,0.199,0.18,0.301,0.285l0.273,0.285c0.03,0.03,0.051,0.055,0.07,0.08c0.05-0.325,0.125-0.68,0.23-1.06
				c0.301-1.05,0.806-2.02,1.489-2.89c0.71-0.885,1.551-1.59,2.485-2.1c0.946-0.51,2.025-0.825,3.121-0.91
				c1.099-0.085,2.245,0.055,3.313,0.41c0.44,0.155,1.012,0.37,1.53,0.69c0.205,0.12,0.406,0.25,0.595,0.385v-0.065
				c0-1.26,0.58-2.33,1.065-3.01c0.71-0.92,1.605-1.65,2.605-2.115c1.085-0.51,2.221-0.74,3.279-0.67
				c1.08,0.055,2.165,0.34,3.221,0.84c1.194,0.565,2.324,1.38,3.354,2.42c0.515,0.515,1,1.08,1.446,1.675
				c0.349-0.3,0.75-0.55,1.175-0.745c0.464-0.205,0.995-0.345,1.62-0.415c1.08-0.11,2.205,0.055,3.255,0.485
				c0.865,0.335,1.679,0.87,2.404,1.585c0.074,0.07,0.145,0.15,0.221,0.225l0.059,0.07c0.691,0.725,1.295,1.605,1.852,2.685
				c0.443,0.89,0.835,1.875,1.193,3.01v0.01c0.051-0.085,0.106-0.175,0.165-0.27c0.301-0.445,0.722-0.835,1.25-1.155
				c0.985-0.58,2.136-0.81,3.24-0.655c1.076,0.14,2.116,0.69,2.915,1.56c1.17,1.265,1.816,3,1.816,4.89
				c0,0.42-0.035,0.85-0.106,1.28c-0.269,1.71-1.024,3.47-2.304,5.365c0.88-0.095,1.813,0.115,2.648,0.605
				c0.37,0.22,0.711,0.475,1.006,0.76c0.494,0.48,0.915,1.065,1.205,1.695C543.16,49.974,543.308,50.724,543.308,51.533
				 M542.734,52.499c0.051-0.335,0.074-0.66,0.074-0.965c0-0.74-0.135-1.42-0.404-2.03c-0.266-0.57-0.646-1.105-1.101-1.54
				c-0.264-0.26-0.569-0.49-0.91-0.69c-0.915-0.535-1.97-0.695-2.88-0.43l-0.689,0.2l0.415-0.585c1.449-2.03,2.29-3.88,2.574-5.665
				c0.062-0.405,0.097-0.805,0.097-1.2c0-1.735-0.615-3.395-1.687-4.55c-0.719-0.78-1.649-1.28-2.609-1.4
				c-0.984-0.14-2.051,0.075-2.92,0.585c-0.466,0.28-0.83,0.62-1.085,1c-0.16,0.245-0.271,0.45-0.346,0.655
				c-0.005,0.035-0.045,0.2-0.205,0.25l-0.144,0.04l-0.116-0.105c-0.07-0.08-0.085-0.15-0.11-0.235
				c-0.005-0.025-0.01-0.05-0.019-0.07l-0.125-0.4c-0.351-1.11-0.731-2.07-1.165-2.935c-0.531-1.035-1.106-1.875-1.76-2.57
				l-0.066-0.065c-0.064-0.07-0.134-0.145-0.2-0.21c-0.684-0.67-1.434-1.17-2.244-1.48c-0.979-0.4-2.021-0.555-3.016-0.45
				c-0.57,0.065-1.049,0.185-1.464,0.375c-0.47,0.21-0.891,0.49-1.255,0.835l-0.205,0.2L519,28.829
				c-0.471-0.655-0.995-1.275-1.556-1.84c-0.989-0.995-2.069-1.775-3.21-2.32c-1-0.475-2.021-0.74-3.04-0.79
				c-0.976-0.07-2.029,0.145-3.04,0.62c-0.926,0.435-1.761,1.11-2.409,1.96c-0.441,0.615-0.972,1.59-0.972,2.715
				c0,0.05,0,0.1,0.006,0.15l0.029,0.86l-0.385-0.215c-0.075-0.04-0.165-0.115-0.254-0.185l-0.09-0.07
				c-0.2-0.15-0.426-0.295-0.656-0.43c-0.49-0.3-1.025-0.505-1.439-0.65c-1-0.33-2.074-0.46-3.109-0.38
				c-1.031,0.075-2.04,0.37-2.92,0.85c-0.881,0.475-1.665,1.14-2.335,1.97c-0.646,0.815-1.115,1.73-1.401,2.715
				c-0.149,0.555-0.24,1.05-0.264,1.505c-0.006,0.075-0.011,0.215-0.146,0.285l-0.13,0.065l-0.219-0.18l-0.151-0.195
				c-0.035-0.04-0.08-0.095-0.12-0.155c-0.04-0.045-0.074-0.095-0.114-0.145l-0.271-0.28c-0.08-0.075-0.17-0.165-0.259-0.24
				c-1.526-1.31-3.726-1.87-5.741-1.46c-1.059,0.21-1.995,0.66-2.7,1.3c-0.744,0.655-1.324,1.52-1.67,2.51
				c-0.255,0.735-0.385,1.515-0.385,2.31c0,1.31,0.355,2.545,1.025,3.565l0.109,0.16c0.111,0.155,0.21,0.305,0.335,0.43l0.386,0.415
				l-0.024,0.085c0,0.115-0.076,0.19-0.101,0.22l-0.17,0.215c-0.336,0.415-0.646,0.84-0.926,1.26
				c-0.625,0.925-1.114,1.845-1.455,2.745c-0.358,0.96-0.54,1.89-0.54,2.765c0,0.08,0,0.155,0.006,0.235
				c0.016,1.015,0.354,2.015,0.954,2.82c0.142,0.195,0.301,0.385,0.485,0.585c0.536,0.555,1.18,0.995,1.866,1.26
				c0.523,0.185,1.005,0.27,1.455,0.25c0.509-0.03,0.994-0.165,1.394-0.395l0.191-0.11l0.179,0.15l0.135,0.18l-0.63,0.635
				c-0.094,0.11-0.184,0.24-0.279,0.375c-0.046,0.07-0.096,0.14-0.149,0.215c-0.101,0.19-0.21,0.415-0.321,0.645l-0.063,0.2
				c-0.051,0.16-0.106,0.315-0.142,0.475c-0.099,0.415-0.148,0.85-0.148,1.29c0,0.53,0.068,1.075,0.204,1.61
				c0.31,1.2,0.939,2.33,1.77,3.185c0.531,0.545,1.125,0.97,1.781,1.26c1.684,0.77,3.745,0.885,5.799,0.315
				c0.956-0.27,1.88-0.655,2.75-1.15c0.875-0.495,1.69-1.085,2.42-1.76l0.351,0.355c-0.335,0.36-0.551,0.835-0.596,1.35
				c-0.01,0.085-0.01,0.17-0.01,0.255c0,0.405,0.085,0.83,0.25,1.26c0.215,0.545,0.55,1.05,0.97,1.46
				c0.335,0.33,0.71,0.585,1.125,0.765c0.865,0.385,1.926,0.535,3.151,0.46c1.099-0.07,2.205-0.3,3.245-0.53l4.88-1.08
				c0.309-0.065,0.634-0.12,0.95-0.12c0.284,0,0.568,0.045,0.84,0.16c0.264,0.115,0.523,0.28,0.759,0.5
				c0.196,0.185,0.385,0.415,0.576,0.675c0.234,0.34,0.45,0.695,0.649,1.035c0.079,0.135,0.159,0.265,0.239,0.395l12.55,20.81
				c-1.14-3.09-1.903-6.29-2.278-9.545c-0.176-1.575-0.267-3.155-0.267-4.71c0-0.62,0.011-1.185,0.035-1.72
				c0.01-0.335,0.035-0.675,0.056-1.02c0.016-0.19,0.029-0.385,0.04-0.58l0.146-1.61l0.294-0.12l0.21,0.16
				c0.826,0.6,1.866,0.86,2.855,0.715c1.864-0.245,3.71-1.365,5.199-3.145c0.301-0.35,0.585-0.77,0.881-1.28
				c0.274-0.55,0.46-0.995,0.585-1.425c0.221-0.725,0.33-1.425,0.33-2.085c0-0.315-0.024-0.635-0.08-0.965
				c-0.069-0.48-0.261-0.95-0.545-1.37c-0.061-0.09-0.131-0.175-0.221-0.265c-0.08-0.08-0.149-0.145-0.219-0.21l-0.156-0.115
				c-0.175-0.115-0.34-0.22-0.514-0.27l-0.366-0.145l-0.035-0.185v-0.155l1.33-0.695c0.42-0.225,0.915-0.49,1.391-0.77
				c2.234-1.305,3.716-2.61,4.659-4.115C542.183,54.458,542.563,53.493,542.734,52.499"/>
			<path clip-path="url(#SVGID_4_)" fill="#273138" d="M542.809,51.533c0,0.305-0.024,0.63-0.075,0.965
				c-0.17,0.995-0.55,1.96-1.13,2.865c-0.944,1.505-2.426,2.81-4.66,4.115c-0.476,0.28-0.97,0.545-1.391,0.77l-1.329,0.695v0.155
				l0.034,0.185l0.365,0.145c0.175,0.05,0.34,0.155,0.515,0.27l0.155,0.115c0.07,0.065,0.141,0.13,0.22,0.21
				c0.091,0.09,0.16,0.175,0.221,0.265c0.285,0.42,0.475,0.89,0.545,1.37c0.055,0.33,0.08,0.65,0.08,0.965
				c0,0.66-0.11,1.36-0.33,2.085c-0.125,0.43-0.311,0.875-0.585,1.425c-0.295,0.51-0.58,0.93-0.88,1.28
				c-1.49,1.78-3.335,2.9-5.2,3.145c-0.99,0.145-2.03-0.115-2.855-0.715l-0.21-0.16l-0.295,0.12l-0.145,1.61
				c-0.01,0.195-0.025,0.39-0.04,0.58c-0.021,0.345-0.045,0.685-0.056,1.02c-0.024,0.535-0.034,1.1-0.034,1.72
				c0,1.555,0.09,3.135,0.266,4.71c0.375,3.255,1.139,6.455,2.279,9.545l-12.55-20.81c-0.08-0.13-0.16-0.26-0.24-0.395
				c-0.199-0.34-0.415-0.695-0.65-1.035c-0.189-0.26-0.379-0.49-0.575-0.675c-0.234-0.22-0.495-0.385-0.76-0.5
				c-0.27-0.115-0.555-0.16-0.839-0.16c-0.316,0-0.641,0.055-0.951,0.12l-4.879,1.08c-1.041,0.23-2.146,0.46-3.246,0.53
				c-1.225,0.075-2.285-0.075-3.149-0.46c-0.415-0.18-0.79-0.435-1.125-0.765c-0.421-0.41-0.756-0.915-0.971-1.46
				c-0.165-0.43-0.25-0.855-0.25-1.26c0-0.085,0-0.17,0.011-0.255c0.045-0.515,0.26-0.99,0.595-1.35l-0.351-0.355
				c-0.729,0.675-1.545,1.265-2.42,1.76c-0.87,0.495-1.795,0.88-2.75,1.15c-2.054,0.57-4.114,0.455-5.8-0.315
				c-0.655-0.29-1.25-0.715-1.78-1.26c-0.83-0.855-1.46-1.985-1.77-3.185c-0.135-0.535-0.204-1.08-0.204-1.61
				c0-0.44,0.049-0.875,0.149-1.29c0.034-0.16,0.09-0.315,0.141-0.475l0.064-0.2c0.109-0.23,0.22-0.455,0.319-0.645
				c0.056-0.075,0.105-0.145,0.15-0.215c0.095-0.135,0.185-0.265,0.28-0.375l0.63-0.635l-0.136-0.18l-0.18-0.15l-0.189,0.11
				c-0.4,0.23-0.886,0.365-1.395,0.395c-0.451,0.02-0.931-0.065-1.456-0.25c-0.685-0.265-1.33-0.705-1.865-1.26
				c-0.185-0.2-0.345-0.39-0.484-0.585c-0.601-0.805-0.94-1.805-0.955-2.82c-0.005-0.08-0.005-0.155-0.005-0.235
				c0-0.875,0.181-1.805,0.54-2.765c0.34-0.9,0.83-1.82,1.455-2.745c0.279-0.42,0.59-0.845,0.925-1.26l0.17-0.215
				c0.024-0.03,0.1-0.105,0.1-0.22l0.025-0.085l-0.385-0.415c-0.125-0.125-0.226-0.275-0.335-0.43l-0.11-0.16
				c-0.67-1.02-1.025-2.255-1.025-3.565c0-0.795,0.13-1.575,0.386-2.31c0.345-0.99,0.925-1.855,1.67-2.51
				c0.705-0.64,1.641-1.09,2.699-1.3c2.016-0.41,4.216,0.15,5.74,1.46c0.09,0.075,0.181,0.165,0.26,0.24l0.271,0.28
				c0.04,0.05,0.075,0.1,0.115,0.145c0.04,0.06,0.085,0.115,0.12,0.155l0.149,0.195l0.22,0.18l0.131-0.065
				c0.135-0.07,0.14-0.21,0.146-0.285c0.024-0.455,0.114-0.95,0.264-1.505c0.285-0.985,0.756-1.9,1.401-2.715
				c0.669-0.83,1.454-1.495,2.335-1.97c0.879-0.48,1.889-0.775,2.919-0.85c1.036-0.08,2.11,0.05,3.11,0.38
				c0.415,0.145,0.95,0.35,1.439,0.65c0.23,0.135,0.455,0.28,0.656,0.43l0.089,0.07c0.09,0.07,0.181,0.145,0.255,0.185l0.386,0.215
				l-0.03-0.86c-0.005-0.05-0.005-0.1-0.005-0.15c0-1.125,0.529-2.1,0.971-2.715c0.649-0.85,1.484-1.525,2.409-1.96
				c1.01-0.475,2.064-0.69,3.04-0.62c1.02,0.05,2.04,0.315,3.04,0.79c1.14,0.545,2.221,1.325,3.21,2.32
				c0.56,0.565,1.085,1.185,1.555,1.84l0.17,0.235l0.205-0.2c0.365-0.345,0.786-0.625,1.255-0.835
				c0.415-0.19,0.896-0.31,1.465-0.375c0.995-0.105,2.035,0.05,3.016,0.45c0.81,0.31,1.56,0.81,2.245,1.48
				c0.064,0.065,0.135,0.14,0.199,0.21l0.066,0.065c0.654,0.695,1.229,1.535,1.759,2.57c0.436,0.865,0.815,1.825,1.165,2.935
				l0.125,0.4c0.01,0.02,0.016,0.045,0.021,0.07c0.024,0.085,0.04,0.155,0.109,0.235l0.115,0.105l0.146-0.04
				c0.159-0.05,0.199-0.215,0.204-0.25c0.075-0.205,0.186-0.41,0.346-0.655c0.255-0.38,0.62-0.72,1.085-1
				c0.87-0.51,1.935-0.725,2.92-0.585c0.96,0.12,1.89,0.62,2.61,1.4c1.069,1.155,1.686,2.815,1.686,4.55
				c0,0.395-0.036,0.795-0.096,1.2c-0.285,1.785-1.125,3.635-2.575,5.665l-0.415,0.585l0.689-0.2c0.91-0.265,1.966-0.105,2.881,0.43
				c0.34,0.2,0.645,0.43,0.909,0.69c0.455,0.435,0.835,0.97,1.101,1.54C542.673,50.113,542.809,50.793,542.809,51.533"/>
			<path clip-path="url(#SVGID_4_)" fill="#FDFEFF" d="M501.599,149.269c0,0.3-0.011,0.575-0.035,0.85
				c-0.08,0.891-0.34,1.63-0.766,2.195c-0.444,0.595-1.13,1.045-2.024,1.345c-0.591,0.195-1.21,0.32-1.815,0.436
				c-0.955,0.185-1.939,0.375-2.82,0.864c-0.6,0.346-1.114,0.9-1.574,1.69c-0.37,0.65-0.676,1.335-0.971,2l-0.059,0.135
				c-0.211,0.485-0.391,0.931-0.556,1.351h-0.37h-0.17c0.185-0.48,0.39-0.99,0.635-1.551l0.06-0.135c0.3-0.68,0.611-1.375,1-2.05
				c0.5-0.87,1.08-1.485,1.761-1.875c0.949-0.53,1.976-0.73,2.97-0.92c0.615-0.12,1.194-0.235,1.75-0.42
				c0.8-0.266,1.399-0.66,1.785-1.17c0.375-0.495,0.59-1.13,0.665-1.94c0.024-0.26,0.035-0.52,0.035-0.805
				c0-0.43-0.025-0.86-0.051-1.275c-0.02-0.444-0.045-0.875-0.069-1.3l-0.04-0.69c-0.085-1.34-0.181-2.505-0.29-3.56
				c-0.025-0.26-0.056-0.505-0.085-0.75l0.25-0.03l0.234,0.085c0.01-0.024,0.016-0.045,0.021-0.069
				c0.03,0.229,0.055,0.47,0.08,0.715c0.109,1.06,0.205,2.229,0.29,3.58l0.04,0.689c0.02,0.426,0.045,0.86,0.069,1.301
				C501.574,148.389,501.599,148.823,501.599,149.269"/>
			<path clip-path="url(#SVGID_4_)" fill="#FDFEFF" d="M501.089,141.479c0,0.06-0.006,0.13-0.021,0.2
				c0-0.016-0.004-0.03-0.004-0.045c-0.116-0.915-0.25-1.801-0.411-2.625c0.081,0.34,0.142,0.659,0.201,0.944l0.19,1.115
				C501.064,141.208,501.089,141.349,501.089,141.479"/>
			<path clip-path="url(#SVGID_4_)" fill="#FDFEFF" d="M501.064,141.633c0,0.016,0.005,0.03,0.005,0.045
				c-0.005,0.025-0.011,0.045-0.021,0.07l-0.234-0.085L501.064,141.633z"/>
			<path clip-path="url(#SVGID_4_)" fill="#FDFEFF" d="M501.064,141.633l-0.25,0.03l-0.234-0.085c0.005-0.02,0.009-0.05,0.009-0.1
				c0-0.096-0.02-0.21-0.04-0.325l-0.179-1.09c-0.062-0.29-0.12-0.591-0.196-0.92c-0.005-0.016-0.005-0.03-0.009-0.046l0.245-0.055
				l0.244-0.045v0.01C500.814,139.833,500.949,140.718,501.064,141.633"/>
			<path clip-path="url(#SVGID_4_)" fill="#FDFEFF" d="M500.814,141.663l-0.25,0.03c-0.109-0.885-0.24-1.74-0.391-2.55
				c0.076,0.33,0.135,0.63,0.196,0.92l0.179,1.09c0.021,0.115,0.04,0.23,0.04,0.325c0,0.05-0.004,0.08-0.009,0.1L500.814,141.663z"
				/>
			<polygon clip-path="url(#SVGID_4_)" fill="#273138" points="500.654,138.988 500.654,138.998 500.41,139.043 			"/>
			<path clip-path="url(#SVGID_4_)" fill="#FDFEFF" d="M500.644,138.938c0,0.015,0.005,0.035,0.01,0.05l-0.244,0.055l-0.245,0.045
				c-0.005-0.02-0.005-0.034-0.011-0.055c-0.119-0.6-0.239-1.16-0.364-1.66c-0.166-0.675-0.295-1.1-0.375-1.335
				c-0.076-0.25-0.121-0.405-0.136-0.46l0.229-0.08l0.12-0.135c0.021,0.055,0.04,0.115,0.061,0.17c0.024,0.08,0.056,0.155,0.08,0.23
				l0.045,0.14C500.133,136.878,500.404,137.873,500.644,138.938"/>
			<polygon clip-path="url(#SVGID_4_)" fill="#273138" points="500.41,139.043 500.165,139.099 500.165,139.088 			"/>
			<path clip-path="url(#SVGID_4_)" fill="#FDFEFF" d="M500.273,137.253c0.125,0.511,0.25,1.07,0.37,1.686
				c-0.239-1.065-0.51-2.061-0.83-3.035l-0.045-0.14c-0.023-0.075-0.055-0.15-0.08-0.23c-0.019-0.055-0.04-0.115-0.06-0.17
				l0.05-0.055l0.056,0.05l0.02,0.064c0.02,0.07,0.065,0.221,0.14,0.46C499.973,136.128,500.103,136.563,500.273,137.253"/>
			<path clip-path="url(#SVGID_4_)" fill="#FDFEFF" d="M499.79,137.373c0.125,0.5,0.245,1.061,0.363,1.66
				c-0.233-1.045-0.5-2.02-0.813-2.975l-0.045-0.135c-0.026-0.075-0.057-0.155-0.08-0.235c-0.2-0.59-0.425-1.186-0.687-1.82
				c-1.179-2.895-2.875-5.745-4.898-8.24c-0.566-0.699-1.191-1.395-1.852-2.074c-0.698-0.715-1.409-1.38-2.113-1.98
				c-0.73-0.62-1.535-1.225-2.49-1.439c-1.05-0.271-2.16-0.165-3.01-0.045c-4.835,0.859-8.57,1.435-11.735,1.81
				c-0.465,0.05-0.92,0.104-1.375,0.155c-0.43,0.045-0.856,0.095-1.276,0.145l-0.205,0.021c-0.773,0.08-1.573,0.17-2.34,0.13
				c-0.823-0.03-1.639-0.245-2.354-0.625c-0.7-0.351-1.312-0.8-1.852-1.2l-0.054-0.04c-0.326-0.24-0.665-0.49-0.946-0.78
				c-0.205-0.205-0.358-0.41-0.469-0.625c-0.19-0.35-0.286-0.77-0.286-1.27c0-0.195,0.017-0.396,0.031-0.58l0.365-3.08
				c0.035-0.31,0.068-0.585,0.095-0.83l0.25,0.025l0.25,0.029c-0.031,0.24-0.06,0.521-0.1,0.83l-0.36,3.075
				c-0.015,0.165-0.031,0.345-0.031,0.53c0,0.425,0.071,0.75,0.227,1.035c0.09,0.17,0.215,0.335,0.385,0.51
				c0.255,0.26,0.563,0.49,0.889,0.729l0.057,0.04c0.52,0.386,1.108,0.82,1.778,1.155c0.656,0.345,1.396,0.54,2.146,0.57
				c0.729,0.035,1.474-0.045,2.269-0.125l0.201-0.025c0.415-0.045,0.844-0.095,1.275-0.145c0.448-0.051,0.91-0.101,1.369-0.155
				c3.159-0.37,6.881-0.945,11.716-1.805c0.903-0.13,2.08-0.235,3.205,0.055c1.06,0.24,1.92,0.885,2.693,1.545
				c0.722,0.61,1.446,1.285,2.156,2.01c0.67,0.69,1.299,1.4,1.879,2.105c2.055,2.535,3.776,5.43,4.97,8.37
				c0.245,0.585,0.455,1.135,0.642,1.685l-0.12,0.135l-0.231,0.08c0.017,0.056,0.062,0.21,0.137,0.46
				C499.494,136.273,499.625,136.698,499.79,137.373"/>
			<path clip-path="url(#SVGID_4_)" fill="#273138" d="M490.609,160.133h0.369c-0.05,0.115-0.09,0.23-0.135,0.34l-0.229-0.09h-0.005
				V160.133z"/>
			<path clip-path="url(#SVGID_4_)" fill="#273138" d="M490.609,160.383v0.25h-0.296v-0.5h0.125c-0.023,0.056-0.045,0.11-0.063,0.16
				L490.609,160.383z"/>
			<path clip-path="url(#SVGID_4_)" fill="#273138" d="M490.609,160.133v0.25l-0.234-0.09c0.019-0.05,0.04-0.104,0.063-0.16H490.609
				z"/>
			<path clip-path="url(#SVGID_4_)" fill="#FDFEFF" d="M463.084,99.508l0.27,0.42l-0.175,0.11c-0.146,0.07-0.351,0.165-0.63,0.21
				c-0.04,0.01-0.111,0.021-0.187,0.025l-0.005-0.021v-0.01l-0.009-0.095l-0.01-0.101v-0.01v-0.045l0.015-0.22
				c0.035-0.005,0.065-0.011,0.094-0.016c0.236-0.035,0.381-0.104,0.49-0.16L463.084,99.508z"/>
			<path clip-path="url(#SVGID_4_)" fill="#FDFEFF" d="M462.364,112.104l0.051,0.005c0,0-0.051,0.439-0.151,1.26l0.076-0.854
				C462.348,112.389,462.358,112.253,462.364,112.104"/>
			<path clip-path="url(#SVGID_4_)" fill="#FDFEFF" d="M462.375,110.528c0.015,0.245,0.02,0.479,0.02,0.7
				c0,0.324-0.01,0.614-0.031,0.875l-0.449-0.056c0,0-0.051,0.436-0.149,1.255l0.075-0.824c0.023-0.34,0.055-0.761,0.055-1.25
				c0-0.21-0.005-0.436-0.02-0.67c-0.065-1.12-0.33-2.051-0.815-2.835c-0.15-0.245-0.321-0.46-0.515-0.66
				c-0.191-0.2-0.415-0.396-0.67-0.57c-0.131-0.095-0.256-0.18-0.381-0.265c-0.346-0.24-0.699-0.49-1.02-0.801
				c-0.061-0.055-0.13-0.125-0.19-0.199c-0.58-0.65-0.909-1.525-0.909-2.396c0-0.52,0.113-1,0.34-1.42
				c0.425-0.845,1.139-1.35,1.835-1.564c0.375,0.095,0.724,0.165,1.035,0.215c0.56,0.095,1.144,0.165,1.729,0.21
				c-0.304,0.035-0.654,0.015-1.054-0.01c-0.255-0.016-0.535-0.03-0.835-0.035c-0.75-0.035-1.776,0.435-2.266,1.415
				c-0.189,0.354-0.284,0.75-0.284,1.189c0,0.75,0.284,1.5,0.789,2.07c0.051,0.06,0.101,0.115,0.154,0.16
				c0.295,0.29,0.636,0.524,0.96,0.75c0.131,0.09,0.261,0.18,0.386,0.274c0.274,0.19,0.524,0.405,0.739,0.63
				c0.222,0.221,0.41,0.466,0.585,0.745C462.014,108.318,462.304,109.323,462.375,110.528"/>
			<polygon clip-path="url(#SVGID_4_)" fill="#273138" points="462.359,100.253 462.364,100.273 462.359,100.273 			"/>
			<path clip-path="url(#SVGID_4_)" fill="#FDFEFF" d="M462.364,112.104c-0.006,0.149-0.016,0.285-0.024,0.41l-0.076,0.854
				l-0.25-0.024l-0.25-0.03v-0.01c0.101-0.82,0.151-1.256,0.151-1.256L462.364,112.104z"/>
			<polygon clip-path="url(#SVGID_4_)" fill="#FDFEFF" points="462.359,100.243 462.359,100.253 462.359,100.273 462.338,100.273 
				462.338,100.048 462.348,100.148 			"/>
			<path clip-path="url(#SVGID_4_)" fill="#FDFEFF" d="M462.354,99.773l-0.016,0.22h-0.005v-0.06v-0.16
				C462.338,99.773,462.348,99.769,462.354,99.773"/>
			<polygon clip-path="url(#SVGID_4_)" fill="#FDFEFF" points="462.339,100.048 462.339,100.273 462.333,100.273 462.333,100.048 
				462.333,100.023 462.339,100.038 			"/>
			<polygon clip-path="url(#SVGID_4_)" fill="#273138" points="462.339,99.993 462.339,100.038 462.333,100.023 462.333,99.993 			
				"/>
			<polygon clip-path="url(#SVGID_4_)" fill="#FDFEFF" points="462.334,100.048 462.334,100.273 462.313,100.273 			"/>
			<path clip-path="url(#SVGID_4_)" fill="#FDFEFF" d="M462.334,100.023v0.024l-0.021,0.226c-0.584-0.045-1.169-0.115-1.729-0.21
				c-0.312-0.05-0.66-0.12-1.035-0.215c0.313-0.096,0.62-0.136,0.894-0.12c0.295,0.005,0.58,0.02,0.846,0.035
				c0.399,0.024,0.745,0.045,1.016,0.01L462.334,100.023z"/>
			<polygon clip-path="url(#SVGID_4_)" fill="#FDFEFF" points="462.334,99.993 462.334,100.023 462.304,99.773 462.318,99.773 
				462.334,99.933 			"/>
			<polygon clip-path="url(#SVGID_4_)" fill="#FDFEFF" points="462.334,99.773 462.334,99.934 462.318,99.773 			"/>
			<polygon clip-path="url(#SVGID_4_)" points="462.264,113.368 462.264,113.373 462.014,113.343 			"/>
			<path clip-path="url(#SVGID_4_)" fill="#FDFEFF" d="M462.304,99.773c-0.271,0.035-0.615,0.015-1.016-0.01
				c-0.265-0.016-0.55-0.03-0.845-0.035c-0.275-0.016-0.58,0.024-0.896,0.12c-0.455-0.115-0.939-0.275-1.42-0.511
				c-0.67-0.324-1.245-0.725-1.705-1.194c-0.18-0.19-0.335-0.37-0.47-0.561c-0.314-0.455-0.51-0.93-0.58-1.42
				c-0.02-0.14-0.03-0.274-0.03-0.42c0-0.385,0.075-0.774,0.216-1.149c0.145-0.375,0.33-0.746,0.515-1.101
				c0.27-0.535,0.555-1.085,0.685-1.68c0.125-0.48,0.186-0.975,0.186-1.47v-0.055c0-0.29-0.021-0.545-0.055-0.77
				c-0.03-0.15-0.091-0.36-0.235-0.5l-0.05-0.04c-0.141-0.1-0.325-0.155-0.521-0.21c-0.06-0.02-0.12-0.035-0.18-0.055
				c-0.265-0.075-0.535-0.17-0.805-0.265c-0.54-0.195-1.075-0.425-1.585-0.68c-1.061-0.535-2.051-1.195-2.95-1.96
				c-0.235-0.2-0.46-0.405-0.67-0.62c-0.24-0.23-0.44-0.46-0.615-0.705c-0.35-0.485-0.545-1.075-0.545-1.655
				c0-0.07,0.005-0.145,0.01-0.215c0.05-0.575,0.26-1.18,0.635-1.795c0.33-0.56,0.735-1.055,1.09-1.465l2.275-2.645
				c1.49-1.735,2.93-3.41,4.305-5c1.186-1.39,2.5-3.06,3.301-4.86c0.385-0.87,0.619-1.715,0.699-2.52
				c0.025-0.25,0.04-0.48,0.04-0.695c0-0.545-0.069-1.115-0.215-1.695c-0.319-1.27-0.88-2.365-1.375-3.335
				c-0.095-0.19-0.189-0.375-0.28-0.555c-0.52-1.01-1.039-2.075-1.314-3.005c-0.065-0.2-0.115-0.4-0.16-0.585l0.245-0.055l0.24,0.07
				l0.02-0.07c0.03,0.16,0.075,0.32,0.135,0.495c0.266,0.89,0.775,1.935,1.28,2.925c0.095,0.185,0.186,0.365,0.285,0.555
				c0.505,0.99,1.08,2.115,1.415,3.44c0.15,0.62,0.225,1.23,0.225,1.815c0,0.23-0.015,0.48-0.04,0.745
				c-0.085,0.855-0.335,1.755-0.739,2.67c-0.825,1.865-2.17,3.565-3.38,4.985c-1.375,1.595-2.815,3.27-4.306,5.005l-2.274,2.64
				c-0.341,0.395-0.726,0.87-1.04,1.395c-0.335,0.555-0.525,1.085-0.565,1.58c-0.005,0.06-0.01,0.115-0.01,0.175
				c0,0.475,0.16,0.96,0.45,1.365c0.159,0.22,0.34,0.43,0.56,0.64c0.21,0.21,0.425,0.405,0.646,0.595
				c0.869,0.74,1.824,1.375,2.85,1.89c0.495,0.25,1.01,0.47,1.53,0.66c0.26,0.095,0.52,0.18,0.779,0.255l0.176,0.055
				c0.229,0.065,0.46,0.13,0.67,0.28c0.02,0.015,0.05,0.035,0.069,0.06c0.23,0.215,0.36,0.485,0.415,0.805
				c0.045,0.255,0.065,0.535,0.065,0.855v0.055c0,0.54-0.065,1.075-0.2,1.585c-0.14,0.655-0.439,1.23-0.725,1.79
				c-0.186,0.36-0.36,0.7-0.49,1.055c-0.125,0.32-0.186,0.645-0.186,0.97c0,0.115,0.011,0.23,0.025,0.345
				c0.061,0.415,0.225,0.82,0.495,1.205c0.12,0.17,0.255,0.33,0.42,0.5c0.415,0.426,0.945,0.795,1.565,1.096
				c0.814,0.399,1.665,0.574,2.314,0.685C461.199,99.663,461.744,99.733,462.304,99.773"/>
			<polygon clip-path="url(#SVGID_4_)" points="462.014,113.343 461.764,113.318 461.764,113.313 			"/>
			<path clip-path="url(#SVGID_4_)" fill="#FDFEFF" d="M458.25,54.403l-0.021,0.07l-0.24-0.07l0.245-0.055
				C458.238,54.368,458.238,54.383,458.25,54.403"/>
		</g>
	</g>
</g>
<g>
	<path fill="#FCFCFC" d="M99.334,125.685V70.707l-19.767,38.661H62.291L42.524,70.707v54.978H10.133V21.314h35.381l25.415,49.098
		L96.51,21.314h35.215v104.37H99.334z"/>
</g>
<g>
	<path fill="#FCFCFC" d="M261.37,21.314v104.37h-33.824V84.818h-41.283v40.866h-33.825V21.314h33.825v38.514h41.283V21.314H261.37z"
		/>
</g>
<g>
	<path fill="#FCFCFC" d="M314.14,21.314h26.312l9.114,32.193l9.261-32.193h26.313l-17.199,49.833l7.497,21.756l22.49-71.589h31.164
		l-40.865,104.37h-23.814l-14.847-37.338l-14.7,37.338h-23.814l-40.865-104.37h31.017l22.638,71.589l7.203-21.756L314.14,21.314z"/>
</g>
</svg>
