<?xml version="1.0" encoding="iso-8859-1"?>
<!-- Generator: Adobe Illustrator 21.0.0, SVG Export Plug-In . SVG Version: 6.00 Build 0)  -->
<svg version="1.1" id="Capa_1" xmlns="http://www.w3.org/2000/svg" xmlns:xlink="http://www.w3.org/1999/xlink" x="0px" y="0px"
	 viewBox="0 0 1449.61 1449.61" style="enable-background:new 0 0 1449.61 1449.61;" xml:space="preserve">
<g>
	<g id="Human_Mind-6">
		
			<linearGradient id="SVGID_1_" gradientUnits="userSpaceOnUse" x1="724.8052" y1="1496.0366" x2="724.8052" y2="-63.3634" gradientTransform="matrix(1 0 0 -1 0 1452)">
			<stop  offset="0" style="stop-color:#F38D74"/>
			<stop  offset="1" style="stop-color:#E93E3A"/>
		</linearGradient>
		<path style="fill:url(#SVGID_1_);" d="M1314.278,371.135C1215.235,158.153,1007.503,16.519,773.06,2.126L749.411,0l-20.943,0.531
			C656.143,3.18,585.259,21.52,520.725,54.279c-171.589,85.784-279.734,261.405-279.1,453.242v89.933L100.142,833.266
			c-6.871,11.436-3.17,26.276,8.266,33.147c3.756,2.256,8.054,3.449,12.436,3.45h151.242l-14.663,217.719
			c-11.233,64.424,31.226,125.969,95.441,138.342c1.59,0.325,3.209,0.487,4.831,0.483c0.864,0.001,1.727-0.048,2.585-0.145
			l147.063-15.943v215.135c0,13.341,10.815,24.156,24.156,24.156h579.747c13.341,0,24.156-10.815,24.156-24.156V1185.39
			l188.78-466.407C1365.672,606.064,1362.125,481.511,1314.278,371.135z M1279.035,701.712l-190.181,469.885
			c-1.328,3.443-1.833,7.149-1.474,10.822c0,0.507-0.29,0.918-0.29,1.425v217.405H555.655v-217.357c0-0.507-0.266-0.942-0.29-1.449
			c-0.024-0.507,0.217-1.063,0.145-1.619c-0.307-1.406-0.743-2.781-1.304-4.106c-0.248-1.01-0.563-2.003-0.942-2.971
			c-0.999-2.146-2.309-4.132-3.889-5.894c-0.29-0.338-0.411-0.773-0.725-1.111c-0.192-0.151-0.393-0.288-0.604-0.411
			c-5.029-5.041-12.041-7.582-19.132-6.933l-170.011,18.407c-37.5-9.448-61.037-46.605-53.554-84.547l16.668-245.91
			c0.939-13.308-9.087-24.858-22.395-25.797c-0.007-0.001-0.015-0.001-0.022-0.002c-1.908,0-136.023,0-136.023,0l122.979-204.965
			c0.213-0.505,0.399-1.021,0.556-1.546c0.7-1.46,1.243-2.99,1.618-4.566c0.485-1.574,0.808-3.192,0.966-4.831
			c0-0.556,0.314-1.039,0.314-1.618v-96.673c-0.608-173.569,97.176-332.496,252.383-410.195
			C600.773,67.52,664.9,50.935,730.328,48.554h19.132c224.251,6.368,425.723,138.704,520.637,341.979
			C1312.834,489.283,1316.033,600.671,1279.035,701.712z"/>
		
			<linearGradient id="SVGID_2_" gradientUnits="userSpaceOnUse" x1="773.0598" y1="1496.0366" x2="773.0598" y2="-63.3634" gradientTransform="matrix(1 0 0 -1 0 1452)">
			<stop  offset="0" style="stop-color:#F38D74"/>
			<stop  offset="1" style="stop-color:#E93E3A"/>
		</linearGradient>
		<path style="fill:url(#SVGID_2_);" d="M773.06,249.364c-91.502-77.744-228.703-66.591-306.447,24.911
			c-73.317,86.291-68.124,214.407,11.935,294.482l273.303,273.327c4.529,4.531,10.672,7.076,17.078,7.078l0,0
			c1.385,0.001,2.767-0.12,4.131-0.362c1.363,0.242,2.746,0.364,4.131,0.362l0,0c6.406-0.001,12.549-2.547,17.078-7.078
			l273.303-273.327c84.894-84.91,84.881-222.564-0.029-307.458C987.468,181.239,859.351,176.047,773.06,249.364z M1033.415,534.6
			L773.06,794.979L512.705,534.6c-66.038-66.038-66.038-173.108,0-239.146s173.108-66.038,239.146,0l4.131,4.155
			c9.584,9.104,24.621,9.104,34.205,0l4.107-4.131c66.038-66.038,173.108-66.038,239.146,0c66.038,66.038,66.038,173.108,0,239.146
			l0,0L1033.415,534.6z"/>
		
			<linearGradient id="SVGID_3_" gradientUnits="userSpaceOnUse" x1="773.0601" y1="1496.0366" x2="773.0601" y2="-63.3634" gradientTransform="matrix(1 0 0 -1 0 1452)">
			<stop  offset="0" style="stop-color:#F38D74"/>
			<stop  offset="1" style="stop-color:#E93E3A"/>
		</linearGradient>
		<path style="fill:url(#SVGID_3_);" d="M1014.622,459.208H927.49l-69.497-132.037c-4.256-8.362-13.049-13.422-22.417-12.899
			c-9.337,0.398-17.606,6.147-21.233,14.759l-77.3,183.828l-55.559-158.295c-3.072-8.738-10.87-14.95-20.074-15.991
			c-9.231-1.184-18.298,3.156-23.166,11.088l-69.207,109.548h-37.539c-13.341,0-24.156,10.815-24.156,24.156
			c0,13.341,10.815,24.156,24.156,24.156h50.849c8.293,0.004,16.008-4.245,20.436-11.257l49.496-78.556l59.738,170.277
			c3.315,9.462,12.129,15.892,22.151,16.16h0.749c9.723,0.003,18.5-5.823,22.272-14.784l81.865-194.457l52.491,99.717
			c4.179,7.935,12.41,12.901,21.378,12.899h101.697c13.341,0,24.156-10.815,24.156-24.156
			C1038.778,470.023,1027.963,459.208,1014.622,459.208z"/>
	</g>
</g>
<g>
</g>
<g>
</g>
<g>
</g>
<g>
</g>
<g>
</g>
<g>
</g>
<g>
</g>
<g>
</g>
<g>
</g>
<g>
</g>
<g>
</g>
<g>
</g>
<g>
</g>
<g>
</g>
<g>
</g>
</svg>
