<?xml version="1.0" encoding="UTF-8" standalone="no"?>
<svg
   xmlns:dc="http://purl.org/dc/elements/1.1/"
   xmlns:cc="http://creativecommons.org/ns#"
   xmlns:rdf="http://www.w3.org/1999/02/22-rdf-syntax-ns#"
   xmlns:svg="http://www.w3.org/2000/svg"
   xmlns="http://www.w3.org/2000/svg"
   viewBox="0 0 321.33334 214.66667"
   height="214.66667"
   width="321.33334"
   xml:space="preserve"
   id="svg2"
   version="1.1"><metadata
     id="metadata8"><rdf:RDF><cc:Work
         rdf:about=""><dc:format>image/svg+xml</dc:format><dc:type
           rdf:resource="http://purl.org/dc/dcmitype/StillImage" /></cc:Work></rdf:RDF></metadata><defs
     id="defs6"><clipPath
       id="clipPath18"
       clipPathUnits="userSpaceOnUse"><path
         id="path16"
         d="M 0,160.63 H 240.937 V 0.06 L 0,0.06 Z" /></clipPath></defs><g
     transform="matrix(1.3333333,0,0,-1.3333333,0,214.66667)"
     id="g10"><g
       id="g12"><g
         clip-path="url(#clipPath18)"
         id="g14"><path
           id="path20"
           style="fill:#254aa5;fill-opacity:1;fill-rule:nonzero;stroke:none"
           d="M 0,160.63 H 240.937 V 0.06 L 0,0.06 Z" /></g></g><path
       id="path22"
       style="fill:#fff200;fill-opacity:1;fill-rule:nonzero;stroke:none"
       d="m 120.32,142.751 1.984,-6.199 6.492,0.027 -5.276,-3.797 2.038,-6.171 -5.238,3.843 -5.25,-3.847 2.039,6.175 -5.285,3.797 6.504,-0.027 1.992,6.199" /><path
       id="path24"
       style="fill:#fff200;fill-opacity:1;fill-rule:nonzero;stroke:none"
       d="m 120.32,35.61 1.984,-6.195 6.492,0.03 -5.276,-3.804 2.038,-6.175 -5.238,3.847 -5.25,-3.847 2.039,6.175 -5.285,3.804 6.504,-0.03 1.992,6.195" /><path
       id="path26"
       style="fill:#fff200;fill-opacity:1;fill-rule:nonzero;stroke:none"
       d="m 93.671,135.622 1.981,-6.191 6.5,0.027 -5.278,-3.797 2.036,-6.179 -5.239,3.847 -5.246,-3.851 2.031,6.183 -5.273,3.797 6.5,-0.027 1.988,6.191" /><path
       id="path28"
       style="fill:#fff200;fill-opacity:1;fill-rule:nonzero;stroke:none"
       d="m 74.046,115.966 1.985,-6.195 6.508,0.031 -5.286,-3.805 2.043,-6.168 -5.25,3.84 -5.241,-3.848 2.031,6.176 -5.273,3.805 6.499,-0.031 1.984,6.195" /><path
       id="path30"
       style="fill:#fff200;fill-opacity:1;fill-rule:nonzero;stroke:none"
       d="m 66.813,89.247 1.984,-6.195 6.499,0.027 -5.28,-3.793 2.042,-6.175 -5.245,3.839 -5.243,-3.839 2.036,6.171 -5.278,3.797 6.504,-0.027 1.981,6.195" /><path
       id="path32"
       style="fill:#fff200;fill-opacity:1;fill-rule:nonzero;stroke:none"
       d="m 73.972,62.525 1.981,-6.2 6.507,0.028 -5.273,-3.797 2.035,-6.181 -5.25,3.849 -5.245,-3.849 2.039,6.181 -5.274,3.793 6.5,-0.024 1.98,6.2" /><path
       id="path34"
       style="fill:#fff200;fill-opacity:1;fill-rule:nonzero;stroke:none"
       d="m 93.671,42.867 1.981,-6.194 6.5,0.03 -5.278,-3.8 2.036,-6.183 -5.239,3.85 -5.246,-3.85 2.031,6.183 -5.273,3.8 6.5,-0.03 1.988,6.194" /><path
       id="path36"
       style="fill:#fff200;fill-opacity:1;fill-rule:nonzero;stroke:none"
       d="m 146.984,135.622 -1.977,-6.191 -6.507,0.027 5.278,-3.797 -2.044,-6.179 5.25,3.847 5.25,-3.851 -2.039,6.183 5.278,3.797 -6.5,-0.027 -1.989,6.191" /><path
       id="path38"
       style="fill:#fff200;fill-opacity:1;fill-rule:nonzero;stroke:none"
       d="m 166.609,115.966 -1.984,-6.195 -6.5,0.031 5.278,-3.805 -2.036,-6.168 5.242,3.84 5.242,-3.848 -2.035,6.176 5.278,3.805 -6.508,-0.031 -1.977,6.195" /><path
       id="path40"
       style="fill:#fff200;fill-opacity:1;fill-rule:nonzero;stroke:none"
       d="m 173.84,89.247 -1.977,-6.195 -6.512,0.027 5.281,-3.793 -2.038,-6.175 5.246,3.839 5.25,-3.839 -2.036,6.171 5.275,3.797 -6.505,-0.027 -1.984,6.195" /><path
       id="path42"
       style="fill:#fff200;fill-opacity:1;fill-rule:nonzero;stroke:none"
       d="m 166.679,62.525 -1.984,-6.2 -6.5,0.028 5.281,-3.797 -2.031,-6.181 5.234,3.849 5.246,-3.849 -2.034,6.181 5.276,3.793 -6.503,-0.024 -1.985,6.2" /><path
       id="path44"
       style="fill:#fff200;fill-opacity:1;fill-rule:nonzero;stroke:none"
       d="m 146.984,42.867 -1.977,-6.194 -6.507,0.03 5.278,-3.8 -2.044,-6.183 5.25,3.85 5.25,-3.85 -2.039,6.183 5.278,3.8 -6.5,-0.03 -1.989,6.194" /></g></svg>