<?xml version="1.0" encoding="utf-8"?>
<!-- Generator: Adobe Illustrator 21.0.0, SVG Export Plug-In . SVG Version: 6.00 Build 0)  -->
<svg version="1.1" id="Layer_1" xmlns="http://www.w3.org/2000/svg" xmlns:xlink="http://www.w3.org/1999/xlink" x="0px" y="0px"
	 viewBox="0 0 600 40" enable-background="new 0 0 600 40" xml:space="preserve">
<g>
	<g>
		<polygon fill="#008DA8" points="38.8,0.6 38.8,36.1 38.7,36.1 9.7,0.6 0,0.6 0,39.4 5.9,39.4 5.9,4.2 6,4.2 35.1,39.4 44.7,39.4 
			44.7,0.6 		"/>
		<path fill="#008DA8" d="M73.7,0.3c12.9,0.1,16.9,3.3,16.9,13.1v13.8c0,9.2-4.4,12.6-16.9,12.6h-7c-12.4,0-16.9-3.4-16.9-12.6V13.3
			c0-9.7,3.9-13,16.9-13.1H73.7z M66.7,4.1c-8.7,0-11,1.6-11,9.2v13.8c0,7.7,3.4,8.7,11,8.7h7c7.6-0.1,11-1,11-8.7V13.3
			c0-7.6-2.3-9.2-11-9.2H66.7z"/>
		<path fill="#008DA8" d="M101.5,39.4h-5.9V0.6h23.9c11.2,0,16.1,2.3,16.1,11.2c0,5.4-0.8,9.5-9.1,10.3v0.1c5.8,0.3,8.4,2.8,8.4,7
			v10.3H129v-8.2c0-4.9-1.6-7.3-8.7-7.3h-18.9V39.4z M119.6,20c9.1-0.2,10.2-2.3,10.2-8.7c0-5-0.9-6.8-10.2-6.8h-18.1V20H119.6z"/>
		<path fill="#008DA8" d="M140.7,0.6h25.2c6.3,0,17.8,0.6,17.8,15v9.3c0,3.8-0.8,14.6-16.4,14.6h-26.6V0.6z M165.9,35.5
			c10.4,0,11.7-4.6,11.9-11.5V13.8c0-2.2-1-9.4-10.9-9.4h-20.3v31.1H165.9z"/>
		<rect x="188.5" y="0.6" fill="#008DA8" width="5.9" height="38.9"/>
		<path fill="#008DA8" d="M214.4,39.7c-9.5,0-15.1-4.5-15.1-12.2v-15c0-11,9.1-12.2,21.6-12.2h4.8c10.8,0,14.2,3.5,14.2,11.2v1.2
			h-5.9v-1.1c0-5.4-1.5-7.5-9.1-7.5h-3.3c-12.2,0-16.4,1.1-16.4,8.2V23c0,8.9,0.5,12.8,10.3,12.8h7c9.4,0,12.3-1,12.3-6.5v-3.1h5.9
			v3.6c0,8.9-7.6,9.9-18,9.9H214.4z"/>
	</g>
	<g>
		<polygon fill="#54B848" points="301.6,39.4 292.7,39.4 279.1,4.5 279,4.5 265.2,39.4 256.5,39.4 240.6,0.6 246.6,0.6 260.7,36.1 
			260.8,36.1 274.8,0.6 283.4,0.6 297.2,36.1 297.4,36.1 311.8,0.6 317.9,0.6 		"/>
		<polygon fill="#54B848" points="325.7,17.7 352,17.7 352,21.3 325.7,21.3 325.7,35.5 353.1,35.5 353.1,39.4 319.8,39.4 319.8,0.6 
			353.1,0.6 353.1,4.5 325.7,4.5 		"/>
		<polygon fill="#54B848" points="364.7,35.5 391.1,35.5 391.1,39.4 358.8,39.4 358.8,0.6 364.7,0.6 		"/>
		<polygon fill="#54B848" points="401.5,35.5 427.9,35.5 427.9,39.4 395.6,39.4 395.6,0.6 401.5,0.6 		"/>
		<polygon fill="#54B848" points="477.1,39.4 467.4,39.4 438.4,4.2 438.2,4.2 438.2,39.4 432.3,39.4 432.3,0.6 442,0.6 471,36.1 
			471.2,36.1 471.2,0.6 477.1,0.6 		"/>
		<polygon fill="#54B848" points="488.4,17.7 514.6,17.7 514.6,21.3 488.4,21.3 488.4,35.5 515.8,35.5 515.8,39.4 482.5,39.4 
			482.5,0.6 515.8,0.6 515.8,4.5 488.4,4.5 		"/>
		<path fill="#54B848" d="M519.1,11.5c0-10.4,6.4-11.3,19.1-11.3c11.2,0,19.3,0.4,18.7,10.9h-5.9c-0.3-6.8-2-7.1-13-7.1
			c-11.5,0-13.1,1.1-13.1,6.5c0,7.4,4.7,6.8,14.4,7c12.3,0.5,18.5,0.3,18.5,10.8c0,11-6.9,11.3-20,11.3c-13.2,0-20-1.2-18.9-12.4
			h5.9c-0.1,8.5,2.1,8.5,13.1,8.5c11.1,0,14.1,0,14.1-7.6c0-7.4-4.4-6.2-13.9-6.7C527.9,20.9,519.1,21.8,519.1,11.5"/>
		<path fill="#54B848" d="M561.2,11.5c0-10.4,6.4-11.3,19.1-11.3c11.2,0,19.3,0.4,18.7,10.9h-5.9c-0.3-6.8-2-7.1-13-7.1
			c-11.5,0-13.1,1.1-13.1,6.5c0,7.4,4.7,6.8,14.4,7c12.3,0.5,18.5,0.3,18.5,10.8c0,11-6.9,11.3-20,11.3c-13.2,0-20-1.2-18.9-12.4
			h5.9c-0.1,8.5,2.1,8.5,13.1,8.5c11.1,0,14.1,0,14.1-7.6c0-7.4-4.4-6.2-13.9-6.7C570,20.9,561.2,21.8,561.2,11.5"/>
	</g>
</g>
</svg>
