<?xml version="1.0" encoding="UTF-8" standalone="no"?>
<svg
   xmlns:dc="http://purl.org/dc/elements/1.1/"
   xmlns:cc="http://creativecommons.org/ns#"
   xmlns:rdf="http://www.w3.org/1999/02/22-rdf-syntax-ns#"
   xmlns:svg="http://www.w3.org/2000/svg"
   xmlns="http://www.w3.org/2000/svg"
   viewBox="0 0 1052.7333 322.41333"
   height="322.41333"
   width="1052.7333"
   xml:space="preserve"
   id="svg2"
   version="1.1"><metadata
     id="metadata8"><rdf:RDF><cc:Work
         rdf:about=""><dc:format>image/svg+xml</dc:format><dc:type
           rdf:resource="http://purl.org/dc/dcmitype/StillImage" /></cc:Work></rdf:RDF></metadata><defs
     id="defs6" /><g
     transform="matrix(1.3333333,0,0,-1.3333333,0,322.41333)"
     id="g10"><g
       transform="scale(0.1)"
       id="g12"><path
         id="path14"
         style="fill:#45acc1;fill-opacity:1;fill-rule:nonzero;stroke:none"
         d="M 484.594,256.121 V 298.82 H 359.715 V 0.191406 L 402.418,0 v 134.52 h 46.34 v 42.71 h -46.34 v 78.891 h 82.176" /><path
         id="path16"
         style="fill:#45acc1;fill-opacity:1;fill-rule:nonzero;stroke:none"
         d="M 565.148,256.121 H 647.32 V 298.82 H 522.441 V 0.191406 L 565.148,0 v 134.52 h 46.336 v 42.71 h -46.336 v 78.891" /><path
         id="path18"
         style="fill:#45acc1;fill-opacity:1;fill-rule:nonzero;stroke:none"
         d="M 847.902,0.0703125 H 972.781 V 42.7695 H 890.605 V 134.398 H 937 v 42.711 h -46.395 v 78.903 h 82.176 v 42.699 H 847.902 V 0.0703125" /><path
         id="path20"
         style="fill:#45acc1;fill-opacity:1;fill-rule:nonzero;stroke:none"
         d="M 685.172,0.0703125 H 810.051 V 42.7695 h -82.172 v 91.6285 h 46.391 v 42.711 h -46.391 v 78.903 h 82.172 v 42.699 H 685.172 V 0.0703125" /><path
         id="path22"
         style="fill:#45acc1;fill-opacity:1;fill-rule:nonzero;stroke:none"
         d="m 71.0039,0.0195313 c 45.7231,0 70.9371,26.8788687 71.0001,75.7226687 V 106.73 H 99.2969 V 75.7695 C 99.2578,50.1406 92.9102,42.7188 71.0039,42.7188 c -21.9492,0 -28.2969,7.4726 -28.2969,33.25 V 222.852 c 0,25.777 6.3477,33.238 28.2969,33.238 21.9063,0 28.2539,-7.41 28.293,-33.008 v -31 h 42.7071 v 31.027 c -0.063,48.813 -25.277,75.692 -71.0001,75.692 C 25.2148,298.801 0,271.832 0,222.852 V 75.9688 C 0,26.9922 25.2148,0.0195313 71.0039,0.0195313" /><path
         id="path24"
         style="fill:#45acc1;fill-opacity:1;fill-rule:nonzero;stroke:none"
         d="m 279.156,75.7695 c -0.039,-25.6289 -6.386,-33.0507 -28.297,-33.0507 -21.945,0 -28.293,7.4726 -28.293,33.25 V 222.852 c 0,25.777 6.348,33.238 28.293,33.238 21.911,0 28.258,-7.41 28.297,-33.008 z M 250.859,298.801 c -45.785,0 -71.004,-26.969 -71.004,-75.949 V 75.9688 c 0,-48.9766 25.219,-75.9492687 71.004,-75.9492687 45.719,0 70.942,26.8788687 71.004,75.7226687 V 223.109 c -0.062,48.813 -25.285,75.692 -71.004,75.692" /><path
         id="path26"
         style="fill:#45acc1;fill-opacity:1;fill-rule:nonzero;stroke:none"
         d="m 1445.97,42.7188 h -19.03 c -6.15,0 -9.53,-3.6172 -9.53,-10.1875 V 12.8086 c 0,-6.57032 3.38,-10.17969 9.53,-10.17969 h 19.03 c 6.14,0 9.52,3.60156 9.53,10.15239 v 19.789 c -0.01,6.5508 -3.39,10.1485 -9.53,10.1485" /><path
         id="path28"
         style="fill:#45acc1;fill-opacity:1;fill-rule:nonzero;stroke:none"
         d="m 1129.04,298.801 c -45.78,0 -71,-26.969 -71,-75.949 V 75.9688 c 0,-48.9766 25.22,-75.9492687 71,-75.9492687 45.72,0 70.94,26.8788687 71.01,75.7226687 V 106.73 h -42.71 V 75.7695 c -0.04,-25.6289 -6.39,-33.0507 -28.3,-33.0507 -21.95,0 -28.3,7.4726 -28.3,33.25 V 222.852 c 0,25.777 6.35,33.238 28.3,33.238 21.91,0 28.26,-7.41 28.3,-33.008 v -31 h 42.71 v 31.027 c -0.07,48.813 -25.29,75.692 -71.01,75.692" /><path
         id="path30"
         style="fill:#45acc1;fill-opacity:1;fill-rule:nonzero;stroke:none"
         d="m 1337.2,75.7695 c -0.04,-25.6289 -6.39,-33.0507 -28.3,-33.0507 -21.95,0 -28.3,7.4726 -28.3,33.25 V 222.852 c 0,25.777 6.35,33.238 28.3,33.238 21.91,0 28.26,-7.41 28.3,-33.008 z m -28.3,223.0315 c -45.79,0 -71,-26.969 -71,-75.949 V 75.9688 c 0,-48.9766 25.21,-75.9492687 71,-75.9492687 45.72,0 70.94,26.8788687 71,75.7226687 V 223.109 c -0.06,48.813 -25.28,75.692 -71,75.692" /><path
         id="path32"
         style="fill:#45acc1;fill-opacity:1;fill-rule:nonzero;stroke:none"
         d="m 1179.26,485.879 h 276.238 v 1931.61 H 1179.26 Z" /><path
         id="path34"
         style="fill:#45acc1;fill-opacity:1;fill-rule:nonzero;stroke:none"
         d="M 3698.07,485.859 H 2890.35 V 2417.48 h 807.72 V 2141.29 H 3166.58 V 1631 h 247.68 V 1354.77 H 3166.58 V 762.059 h 531.49 v -276.2" /><path
         id="path36"
         style="fill:#45acc1;fill-opacity:1;fill-rule:nonzero;stroke:none"
         d="M 459.266,485.879 C 163.551,485.879 0.445313,659.762 0,975.469 V 1092.94 H 276.242 V 975.621 c 0.242,-165.633 41.301,-213.531 183.024,-213.531 141.961,0 183.019,48.23 183.019,215.039 0,113.151 -69.219,212.281 -274.297,392.841 C 119.461,1588.75 0,1703.79 0,1926.27 c 0,316.75 163.102,491.21 459.25,491.21 295.688,0 458.805,-173.87 459.262,-489.55 V 1810.4 H 642.285 v 117.32 c -0.242,165.64 -41.301,213.57 -183.035,213.57 -141.965,0 -183.008,-48.24 -183.008,-215.02 0,-93.46 35.891,-139.11 274.281,-348.98 275.129,-242.2 367.989,-393.64 367.989,-600.161 0,-316.789 -163.102,-491.25 -459.246,-491.25" /><path
         id="path38"
         style="fill:#45acc1;fill-opacity:1;fill-rule:nonzero;stroke:none"
         d="m 1976.58,762.059 h 209.67 c 129.07,0 183.02,28.761 183.02,207.011 v 958.63 c -0.23,165.66 -41.28,213.59 -183.03,213.59 h -209.66 z m 209.67,-276.2 H 1700.34 V 2417.48 h 485.9 c 295.69,0 458.79,-173.84 459.28,-489.55 V 969.07 c 0,-316.121 -158.82,-483.211 -459.27,-483.211" /><path
         id="path40"
         style="fill:#45acc1;fill-opacity:1;fill-rule:nonzero;stroke:none"
         d="m 5175.91,485.609 h 276.23 v 1932.21 h -276.23 z" /><path
         id="path42"
         style="fill:#45acc1;fill-opacity:1;fill-rule:nonzero;stroke:none"
         d="M 4896.19,485.609 H 4600.37 L 4327.43,1197.4 4194.7,939 V 485.609 H 3918.46 V 2418.1 h 276.24 v -874.49 l 449.18,874.49 h 309.75 l -106,-207.98 -350.83,-682.96 399.39,-1041.551" /><path
         id="path44"
         style="fill:#45acc1;fill-opacity:1;fill-rule:nonzero;stroke:none"
         d="M 7895.49,485.609 H 7599.67 L 7269.27,1197.4 7136.55,939 V 485.609 H 6860.31 V 2418.1 h 276.24 v -874.49 l 449.18,874.49 h 309.76 L 7438.66,1527.16 7895.49,485.609" /><path
         id="path46"
         style="fill:#45acc1;fill-opacity:1;fill-rule:nonzero;stroke:none"
         d="m 6128.51,485.27 c -296.15,0 -459.26,174.468 -459.26,491.242 v 950.028 c 0,316.82 163.11,491.28 459.26,491.28 295.73,0 458.83,-173.87 459.25,-489.59 v -200.69 h -276.22 v 200.49 c -0.25,165.63 -41.31,213.53 -183.03,213.53 -141.97,0 -183.02,-48.23 -183.02,-215.02 V 976.512 c 0,-166.774 41.05,-215.024 183.02,-215.024 141.72,0 182.78,47.961 183.03,213.742 v 200.27 h 276.22 V 975.031 C 6587.34,659.172 6424.24,485.27 6128.51,485.27" /></g></g></svg>