<?xml version="1.0" standalone="no"?>
<!DOCTYPE svg PUBLIC "-//W3C//DTD SVG 20010904//EN"
 "http://www.w3.org/TR/2001/REC-SVG-20010904/DTD/svg10.dtd">
<svg version="1.0" xmlns="http://www.w3.org/2000/svg"
 width="700.000000pt" height="700.000000pt" viewBox="0 0 700.000000 700.000000"
 preserveAspectRatio="xMidYMid meet">
<metadata>
Created by potrace 1.11, written by Peter Selinger 2001-2013
</metadata>
<g transform="translate(0.000000,700.000000) scale(0.100000,-0.100000)"
fill="#000000" stroke="none">
<path d="M3535 6266 c-331 -38 -739 -145 -1080 -285 -276 -114 -429 -260 -524
-504 -40 -104 -220 -724 -228 -787 -3 -27 6 -56 41 -128 89 -181 95 -259 31
-381 -39 -74 -83 -130 -261 -337 -133 -154 -154 -186 -154 -235 0 -49 68 -108
195 -170 84 -40 105 -55 106 -72 4 -50 -4 -95 -27 -151 -13 -33 -24 -74 -24
-92 0 -70 99 -134 211 -137 81 -3 69 -21 -17 -27 -38 -3 -75 -9 -82 -13 -24
-16 -43 -67 -37 -100 8 -39 18 -53 74 -97 56 -44 91 -116 91 -189 0 -30 -5
-104 -12 -166 -14 -136 -11 -142 83 -198 58 -34 70 -37 140 -37 79 0 286 25
489 60 140 24 215 25 264 5 49 -21 186 -152 256 -246 99 -133 183 -315 214
-462 20 -100 41 -371 32 -430 -8 -53 -41 -99 -83 -115 -16 -6 -65 -21 -109
-32 -98 -26 -128 -53 -173 -152 l-30 -68 147 0 c378 0 1763 21 1982 30 253 10
559 37 573 50 5 4 -29 61 -76 126 -277 390 -494 821 -645 1284 -162 495 -187
749 -102 1023 44 138 100 253 235 482 252 424 299 519 346 702 74 289 24 656
-132 966 -180 358 -478 635 -835 777 -241 96 -591 138 -879 106z m269 -460
c32 -16 85 -55 118 -87 l60 -58 26 17 c40 26 164 23 218 -5 60 -32 127 -112
160 -190 15 -37 29 -70 30 -72 2 -2 17 8 33 22 100 84 229 50 291 -77 30 -61
32 -72 28 -140 -4 -58 -13 -91 -41 -150 l-36 -76 42 -11 c96 -25 154 -108 144
-208 -10 -112 -88 -217 -217 -293 -35 -21 -69 -39 -74 -41 -6 -2 1 -18 16 -36
87 -103 7 -309 -153 -392 -46 -24 -147 -32 -181 -16 -14 7 -17 0 -23 -56 -10
-91 11 -325 39 -442 30 -121 76 -251 111 -312 28 -46 30 -86 3 -43 -9 14 -147
243 -308 510 -160 267 -301 493 -313 504 -26 21 -61 19 -207 -13 -132 -29
-228 -37 -276 -21 -68 22 -124 88 -124 148 l0 30 -81 -42 c-79 -40 -84 -41
-178 -41 -80 0 -103 4 -137 22 -114 61 -176 217 -130 328 l15 35 -38 0 c-73 0
-153 75 -172 162 -17 75 12 180 74 266 34 49 35 49 16 73 -31 40 -52 125 -45
182 18 134 115 220 246 220 70 -1 121 -18 167 -57 l30 -25 11 37 c29 97 111
179 205 207 82 24 143 17 248 -29 13 -6 18 0 23 27 4 19 20 53 36 75 72 100
219 129 344 68z"/>
</g>
</svg>
